<?xml version="1.0" encoding="utf-8"?>
<!-- Generator: Adobe Illustrator 19.2.1, SVG Export Plug-In . SVG Version: 6.00 Build 0)  -->
<svg version="1.1" id="Layer_1" xmlns="http://www.w3.org/2000/svg" xmlns:xlink="http://www.w3.org/1999/xlink" x="0px" y="0px"
	 viewBox="0 0 2206 1036" style="enable-background:new 0 0 2206 1036;" xml:space="preserve">
<style type="text/css">
	.st0{fill:#3367D6;}
	.st1{fill:#7D64CE;}
	.st2{fill:none;stroke:#7D64CE;stroke-width:20;stroke-miterlimit:10;}
</style>
<g id="icomoon-ignore">
</g>
<path class="st0" d="M1029.4,450.3c-14.8-62.9-51.9-107.4-116.7-122.3c-61.1-13.9-121.4-6.6-179.7,12.9
	c-25.9,8.4-47.2,24.1-52.9,52.9c-3.6,15.7-4.6,32.4-4.6,48.1c0,167.7,0,345.4,0,513.1c0,5.5,0.9,11.1,0.9,15.7
	c1.8,13.9,9.3,21.3,23.1,21.3c20.4,0.9,41.7,0.9,62,0c12.9,0,19.5-7.5,22.2-19.5c0.9-5.5,1.8-11.1,1.8-15.7c0-41.7,0-93.5,0-137.1
	c5.5,0.9,10.2,0.9,13.9,1.8c26.8,0.9,54.7,4.6,81.5,2.7c43.6-2.7,82.4-18.6,111.2-51.9c26.8-30.6,40.8-67.6,43.6-107.4
	c3.6-47.2,3.6-94.4,2.7-141.6C1038.5,498.4,1034.9,474.3,1029.4,450.3L1029.4,450.3z M927.5,650.2c0,12-1.8,25-5.5,37
	c-7.5,24.1-26.8,36.1-49.9,37.9c-21.3,1.8-43.6,0.9-64.9-1.8c-17.7-1.8-22.2-8.4-22.2-26.8c0-31.5,0-62.9,0-94.4
	c0-9.3,0-18.6,0-27.7c0-39.7,0-79.7,0-119.4c0-21.3,3.6-27.7,24.1-30.6c20.4-2.7,42.7-4.6,62.9-2.7c34.3,3.6,53.8,25.9,54.7,62
	c0.9,28.8,0.9,57.4,0.9,87.1C927.5,597.4,928.4,623.4,927.5,650.2L927.5,650.2z M394.9,414.9c-1.8-34.3-18.6-58.3-49-70.4
	C293,322.3,237.6,317.7,181.1,325c-61.1,8.4-104.6,40.9-128.7,97.2c-11.1,25.9-17.7,52.9-17.7,79.7c-1.8,57.4-4.6,115.7,3.6,173.2
	c5.5,37,18.6,71.3,44.5,100.1c30.6,34.3,71.3,48.1,115.7,49.9c29.7,0.9,59.2-1.8,89-2.7v8.4c0,38.8,0,87.1,0,126.9
	c0,4.6,0,9.3,0.9,12.9c1.8,14.8,9.3,22.2,25,23.1c16.6,0.9,32.4,0.9,49,0.9c26.8,0,35.2-8.4,35.2-35.2c0-2.7,0-5.5,0-8.4
	c0-163.9,0-336.1,0-500.2C395.8,438.1,394.9,426.9,394.9,414.9L394.9,414.9z M285.7,688.1c0,29.7-3.6,34.3-33.4,37
	c-19.5,1.8-38.8,1.8-57.4-0.9c-29.7-4.6-48.1-26.8-49.9-56.5c-0.9-17.7-0.9-34.3-0.9-51.9c0-44.5,0-89.9,0.9-134.3
	c0.9-36.1,25-59.2,60.2-60.2c19.5-0.9,38.8,0.9,57.4,3.6c17.7,2.7,22.2,8.4,22.2,26.8c0,40.8,0,82.4,0,123.2l0,0
	C285.7,612.3,285.7,650.2,285.7,688.1L285.7,688.1z M1458.1,517.7c0-56.5,0-113,0-169.5c0-9.3-3.6-13.9-12-15.7
	c-4.6-0.9-9.3-1.8-13.9-1.8c-12.9,0-25,0-37.9,0c-32.4,0-38.8,6.6-38.8,38.8c0,92.6,0,185.2,0,277.8c0,12-0.9,24.1-3.6,36.1
	c-4.6,23.1-19.5,37.9-43.6,42.7c-25.9,4.6-49.9-3.6-62.9-23.1c-11.1-16.6-12-36.1-12-55.6c0-91.7,0-184.3,0-276c0-3.6,0-8.4-0.9-12
	c-2.7-20.4-10.2-26.8-30.6-27.7c-15.7,0-30.6,0-46.3,0c-24.1,0-32.4,8.4-32.4,32.4c0,89.9,0,180.6,0.9,270.5
	c0,31.5,4.6,62.9,15.7,92.6c12.9,37.9,37,67.6,74,83.3c43.6,19.5,89,19.5,135.2,9.3c64.9-14.8,107.4-71.3,110.3-141.6
	C1459,624.4,1458.1,570.6,1458.1,517.7L1458.1,517.7z M589.4,367.7c0-5.5-0.9-11.1-1.8-17.7c-1.8-9.3-7.5-16.6-17.7-17.7
	c-24.1-0.9-48.1-0.9-72.2,0c-9.3,0-15.7,8.4-17.7,17.7c-0.9,5.5-1.8,11.1-1.8,17.7c0,137.1,0,283.4,0,421.4c0,5.5,0.9,11.1,1.8,17.7
	c1.8,10.2,8.4,17.7,17.7,17.7c24.1,0.9,47.2,0.9,71.3,0c9.3,0,15.7-7.5,17.7-17.7c0.9-5.5,1.8-12,1.8-18.6c0-68.5,0-145.5,0-214
	C589.4,505.7,589.4,436.2,589.4,367.7L589.4,367.7z M571,174.1c-23.1-12-48.1-11.1-71.3,0c-5.5,2.7-10.2,7.5-13.9,12
	c-15.7,19.5-14.8,60.2,0,80.6c15.7,22.2,56.5,24.1,79.7,14.8c25-10.2,31.5-32.4,31.5-52.9C596,204.8,591.2,184.3,571,174.1
	L571,174.1z"/>
<g>
	<g>
		<path class="st1" d="M1787.1,377c0,28.9,16.8,44.8,48.9,44.8c32.1,0,48.9-15.9,48.9-44.8V239.5c0-7.9,2.9-10.8,10.8-10.8h18.1
			c7.9,0,10.8,2.9,10.8,10.8v137.2c0,50.8-31.4,82.3-88.6,82.3c-57.2,0-88.9-31.4-88.9-82.3V239.5c0-7.9,2.9-10.8,10.8-10.8h18.4
			c7.9,0,10.8,2.9,10.8,10.8V377z"/>
		<path class="st1" d="M1967.2,239.5c0-7.9,3.2-10.8,11.1-10.8h18.1c7.9,0,10.8,2.9,10.8,10.8v203.9c0,7.9-2.9,10.8-10.8,10.8h-18.1
			c-7.9,0-11.1-2.9-11.1-10.8V239.5z"/>
	</g>
	<circle class="st2" cx="1877.2" cy="343.8" r="305.6"/>
</g>
</svg>
