<?xml version="1.0" standalone="no"?>
<!DOCTYPE svg PUBLIC "-//W3C//DTD SVG 1.1//EN" "http://www.w3.org/Graphics/SVG/1.1/DTD/svg11.dtd" >
<svg xmlns="http://www.w3.org/2000/svg">
<metadata>Generated by IcoMoon</metadata>
<defs>
<font id="qipu" horiz-adv-x="1024">
<font-face units-per-em="1024" ascent="960" descent="-64" />
<missing-glyph horiz-adv-x="1024" />
<glyph unicode="&#x20;" horiz-adv-x="512" d="" />
<glyph unicode="&#xe600;" glyph-name="report" d="M1014 13h-903.6v937h-33.4v-937h-67v-33.4h67v-33.6h33.4v33.6h903.6zM830 79.8h66.8c9.2 0 16.8 7.6 17 16.8v167.4c0 9.2-7.6 16.8-16.8 16.8h-67c-9.2 0-16.8-7.6-16.8-16.8v-167.4c0-9.2 7.6-16.8 16.8-16.8zM846.6 247.2h33.6v-133.8h-33.6v133.8zM629 79.8h67c9.2 0 16.8 7.6 16.8 16.8v334.6c0 9.4-7.6 16.8-16.8 16.8h-67c-9.2 0-16.8-7.6-16.8-16.8v-334.6c0-9.2 7.6-16.8 16.8-16.8zM645.8 414.6h33.4v-301.2h-33.4v301.2zM428.2 79.8h67c9.4 0 16.8 7.6 16.8 16.8v200.8c0 9.2-7.6 16.8-16.8 16.8h-67c-9.4 0-16.8-7.6-16.8-16.8v-200.8c0-9.2 7.6-16.8 16.8-16.8zM445 280.8h33.4v-167.4h-33.4v167.4zM227.4 79.8h67c9.4 0 16.8 7.6 16.8 16.8v635.8c0 9.4-7.6 16.8-16.8 16.8h-67c-9.4 0-16.8-7.6-16.8-16.8v-635.8c0-9.2 7.6-16.8 16.8-16.8zM244.2 715.8h33.4v-602.4h-33.4v602.4z" />
<glyph unicode="&#xe601;" glyph-name="information" d="M582.7 179.7h-136.5c-9.4 0-17.1 7.7-17.1 17.1v273c0 9.4 7.6 17.1 17.1 17.1h136.5c9.4 0 17.1-7.6 17.1-17.1v-273.1c0-9.4-7.7-17-17.1-17zM463.3 213.8h102.4v238.9h-102.4v-238.9zM505.5 553.7c-44.8 0-81.3 36.5-81.3 81.3s36.5 81.3 81.3 81.3c44.9 0 81.3-36.5 81.3-81.3s-36.4-81.3-81.3-81.3v0zM505.5 682.2c-26 0-47.2-21.2-47.2-47.2s21.1-47.2 47.2-47.2c26.1 0 47.2 21.2 47.2 47.2s-21.1 47.2-47.2 47.2zM512-59.7c-279.9 0-507.7 227.8-507.7 507.7 0 280 227.8 507.7 507.7 507.7 280 0 507.7-227.7 507.7-507.7 0-279.9-227.7-507.7-507.7-507.7zM512 921.6c-261.1 0-473.6-212.4-473.6-473.6 0-261.1 212.5-473.6 473.6-473.6s473.6 212.5 473.6 473.6c0 261.2-212.5 473.6-473.6 473.6v0z" />
<glyph unicode="&#xe602;" glyph-name="envelope" d="M1005 789.3h-989.9c-9.4 0-17.1-7.6-17.1-17.1v-648.5c0-9.4 7.6-17.1 17.1-17.1h989.9c9.4 0 17.1 7.7 17.1 17.1v648.6c-0.1 9.4-7.8 17-17.1 17zM957 755.2l-372.4-323.9c-39.3-34.2-105.7-34.2-145 0l-372.6 323.9h890zM32.2 140.8c0 0 0 570.9 0 599.4l384.9-334.7c26.1-22.8 60.5-34.1 94.9-34.1 34.3 0 68.7 11.4 95 34.1l380.9 331.3v-596h-955.7zM512 371.4v0 0z" />
<glyph unicode="&#xe603;" glyph-name="key" horiz-adv-x="1127" d="M273.067 172.919c-150.562 0-273.067 123.324-273.067 274.91 0 151.757 122.505 275.217 273.067 275.217 106.428 0 187.699-62.532 230.537-123.733h521.421c59.87 0 103.253-48.606 103.253-115.61 0-28.706 0-114.244-78.985-119.706-8.192-10.342-21.129-28.399-26.317-35.738-3.14-4.471-8.192-7.134-13.653-7.236-6.076 0.137-10.684 2.423-13.858 6.827l-20.207 26.931-28.809-28.774c-6.656-6.622-17.476-6.622-24.132 0l-30.583 30.583-30.618-30.652c-6.656-6.656-17.442-6.656-24.098-0.034l-30.583 30.515-30.788-30.857c-6.519-6.622-17.271-6.69-23.996-0.171l-30.788 30.106-31.334-31.949c-6.417-6.485-16.862-6.861-23.654-0.717l-32.154 29.218-39.151-37.205c-5.188-4.983-12.971-6.178-19.354-2.935l-51.985 25.873c-41.916-84.48-137.114-164.864-250.163-164.864zM273.067 688.913c-131.755 0-238.933-108.134-238.933-241.084 0-132.779 107.179-240.777 238.933-240.777 105.472 0 193.468 80.589 225.826 160.222 1.809 4.437 5.325 7.851 9.796 9.523s9.387 1.399 13.619-0.717l57.139-28.467 42.018 39.936c6.417 6.212 16.589 6.349 23.211 0.307l31.812-28.911 31.812 32.29c6.554 6.724 17.34 6.861 24.132 0.307l30.822-30.242 30.822 31.061c6.656 6.622 17.476 6.622 24.132 0l30.652-30.515 30.686 30.652c6.622 6.656 17.442 6.656 24.132 0l30.618-30.549 30.583 30.583c3.55 3.55 8.158 5.291 13.278 4.983 4.983-0.41 9.455-2.799 12.425-6.758l18.057-24.064c6.929 9.421 14.882 19.968 19.593 25.225 3.277 3.584 7.817 5.666 12.663 5.666 38.81 0 53.214 23.313 53.214 85.879 0 47.957-28.399 81.476-69.086 81.476h-530.5c-5.769 0-11.162 2.935-14.302 7.817-45.739 70.656-127.078 116.156-207.155 116.156zM187.733 342.938c-56.457 0-102.4 45.943-102.4 102.4s45.943 102.4 102.4 102.4c56.457 0 102.4-45.943 102.4-102.4s-45.978-102.4-102.4-102.4zM187.733 513.604c-37.683 0-68.267-30.618-68.267-68.267 0-37.683 30.583-68.267 68.267-68.267 37.649 0 68.267 30.583 68.267 68.267 0 37.649-30.652 68.267-68.267 68.267z" />
<glyph unicode="&#xe604;" glyph-name="consulting" d="M844.4 614.6h-42.3v59.9c0 159.7-130.1 289.6-290.1 289.6s-290.1-129.9-290.1-289.7v-59.9c0 0 0 0 0 0h-60.1c-45.7 0-76.4-29.2-76.4-72.5v-128c0-43.4 30.7-72.5 76.4-72.5h77.2c9.4 0 17.1 7.6 17.1 17.1v124c7.8 0.4 20.2 1.1 35.8 2.7-1-2.2-1.6-4.7-1.6-7.3v-129.7c0-125.6 91.9-227.7 204.8-227.7v0c112.9 0 204.8 102.2 204.8 227.7v148c20-8.8 38.7-14 54-14v0c3.5 0 6.8 1.1 9.6 2.9 0.5-1 0.9-2.1 1.4-3.1 0.8-1.8 2-3.5 3.3-4.8v-118.7c0 0 0 0 0 0v-269.7c0-20.4-39.3-54.5-62.8-54.5h-87.4c-10.3 19.2-28.7 34.1-50.7 34.1h-128c-34.2 0-59.7-36-59.7-68.3s25.6-68.3 59.7-68.3h128c34.2 0 59.7 36 59.7 68.3h78.4c39.2 0 96.9 46.7 96.9 88.6v252.7h42.3c46.4 0 94.3 27.1 94.3 72.5v128c-0.2 45.4-48.2 72.6-94.5 72.6zM567.1-34h-128c-12.2 0-25.6 17.8-25.6 34.1s13.4 34.1 25.6 34.1h128c12.2 0 25.6-17.8 25.6-34.1s-13.4-34.1-25.6-34.1zM512 930c141.2 0 256-114.6 256-255.5v-76.9c0 0 0 0 0 0v-16.7c-44.4 162.6-139.8 255.1-264.9 255.1-110.4 0-197.6-72-247.1-200.5v38.9c0 140.9 114.8 255.6 256 255.6zM161.8 375.6c-15.8 0-42.3 5-42.3 38.4v128c0 33.4 26.5 38.4 42.3 38.4v0h60.1v-79.6c0-0.4 0-0.8 0-1.2v-124h-60.1zM665.6 512.2v-163.8c0-106.8-76.6-193.6-170.7-193.6-95.7 0-170.7 85.1-170.7 193.6v129.6c0 4.1-1.5 7.9-3.9 10.8 78.1 11.3 195.4 42.2 232.5 125.8 25.6-36.9 69.5-74.9 112.8-100.7 0-0.5 0-1.1 0-1.7zM564.6 671.8c0 9.4-7.7 17.1-17.1 17.1s-17.1-7.6-17.1-17.1c0-129.3-212.2-151.3-269.4-154.8 0.7 5.1 1.1 9.9 1.4 14.2 0.3 4 0.5 7.6 1.2 10.8 17.3 78.1 75.2 259.7 239.3 259.7s222.1-181.6 239.3-259.7c1.6-7 4.2-15.5 7.9-25.5-61.2 3.9-185.5 106.9-185.5 155.3zM904.5 414c0-22.6-31.7-38.4-60.1-38.4h-42.3v204.8h42.3c28.5 0 60.1-15.8 60.1-38.4v-128z" />
<glyph unicode="&#xe605;" glyph-name="gears" d="M673.997 317.338c-40.789 0-74.342 31.949-76.937 72.090-14.541 4.574-28.604 10.377-42.052 17.442-29.082-25.668-77.414-24.474-105.438 3.482-14.575 14.643-22.562 34.031-22.562 54.647 0 18.91 6.724 36.796 19.183 50.825-7.066 13.483-12.868 27.546-17.408 42.086-40.277 2.594-72.124 36.147-72.124 76.971s31.915 74.377 72.090 76.971c4.54 14.541 10.377 28.638 17.442 42.086-12.322 13.926-19.183 31.881-19.183 50.859 0 20.617 7.987 39.97 22.562 54.545 27.955 27.955 76.049 29.355 105.438 3.482 13.483 6.997 27.546 12.8 42.052 17.374 2.594 40.209 36.147 72.124 76.937 72.124 40.858 0 74.411-31.915 77.005-72.124 14.541-4.574 28.604-10.377 42.052-17.374 29.218 25.805 77.483 24.508 105.472-3.482 14.541-14.541 22.528-33.929 22.528-54.545 0-18.944-6.724-36.796-19.217-50.825 7.066-13.483 13.005-27.58 17.579-42.121 40.209-2.628 71.953-36.147 71.953-76.971 0-40.858-31.915-74.377-72.021-76.971-4.574-14.507-10.445-28.604-17.442-42.086 12.254-13.892 19.183-31.846 19.183-50.825 0-20.617-7.919-39.97-22.528-54.647-27.853-27.819-76.015-29.15-105.472-3.482-13.517-7.066-27.58-12.868-41.984-17.442-2.697-40.243-36.25-72.090-77.107-72.090zM550.878 445.815c2.935 0 6.007-0.785 8.738-2.423 18.466-11.025 38.4-19.354 59.255-24.747 8.397-2.15 13.858-10.24 12.732-18.807-0.41-3.072-0.683-4.233-0.683-5.393 0-23.723 19.217-43.145 43.076-43.145 23.723 0 43.008 19.217 43.008 43.145 0 1.126-0.205 2.253-0.41 3.516-1.195 8.67 3.994 18.534 12.459 20.685 20.924 5.188 40.858 13.551 59.324 24.747 7.543 4.471 17.135 2.628 22.221-4.267 0.649-0.683 2.662-4.096 3.072-4.813 15.531-15.906 44.373-16.111 60.45 0.171 8.124 8.090 12.595 18.91 12.595 30.379s-4.471 22.255-12.527 30.345c-0.717 0.444-4.13 2.389-4.983 2.97-6.622 5.325-8.431 14.814-3.959 22.118 10.957 18.5 19.217 38.468 24.678 59.358 2.15 8.363 10.138 13.824 18.807 12.766 3.072-0.444 4.267-0.683 5.461-0.683 23.586 0 43.008 19.285 43.008 43.008 0 24.986-22.323 45.978-46.797 42.633-8.26-1.161-18.261 4.096-20.48 12.493-5.257 20.89-13.585 40.858-24.747 59.29-4.471 7.407-2.628 16.964 4.062 22.255 0.717 0.546 4.198 2.731 4.983 3.174 7.987 7.817 12.459 18.569 12.459 30.071s-4.471 22.289-12.595 30.447c-16.316 16.316-44.612 16.282-60.723 0-0.41-0.785-2.15-4.096-2.731-4.813-5.325-6.793-14.882-8.567-22.118-4.164-18.466 11.025-38.468 19.319-59.46 24.713-8.329 2.15-13.756 10.206-12.663 18.739 0.512 3.072 0.717 4.233 0.717 5.427 0 23.723-19.217 43.042-43.008 43.042s-43.11-19.285-43.11-43.042c0-1.263 0.307-2.492 0.444-3.686 1.263-8.602-3.994-18.33-12.39-20.48-20.89-5.393-40.892-13.687-59.29-24.713-7.475-4.335-16.896-2.662-22.221 3.925-0.614 0.751-2.867 4.301-3.345 5.154-15.633 15.94-44.271 16.111-60.484-0.171-8.090-8.090-12.595-18.91-12.595-30.447 0-11.503 4.506-22.289 12.561-30.379 0.751-0.444 4.096-2.287 4.813-2.833 6.827-5.291 8.67-14.882 4.198-22.289-11.059-18.432-19.388-38.4-24.713-59.29-2.15-8.329-10.274-13.722-18.671-12.732-3.072 0.41-4.335 0.614-5.598 0.614-23.723 0-43.008-19.285-43.008-43.008-0.034-24.883 22.596-46.012 46.524-42.633 8.943 1.161 18.603-4.028 20.685-12.459 5.257-20.89 13.551-40.858 24.644-59.358 4.437-7.373 2.628-16.896-4.062-22.153-0.717-0.614-4.13-2.731-4.949-3.174-7.987-7.851-12.493-18.637-12.493-30.106 0-11.503 4.471-22.289 12.561-30.379 16.282-16.247 44.612-16.247 60.826 0 0.478 0.819 2.355 4.198 3.004 4.983 3.447 4.198 8.363 6.417 13.449 6.417zM673.997 542.583c-50.79 0-92.126 41.335-92.126 92.16 0 50.859 41.335 92.194 92.126 92.194 50.859 0 92.194-41.335 92.194-92.194 0-50.825-41.335-92.16-92.194-92.16zM673.997 692.804c-31.949 0-57.993-26.044-57.993-58.061s26.078-58.027 57.993-58.027c32.051 0 58.061 26.044 58.061 58.027s-26.044 58.061-58.061 58.061zM224.529-56.183c-5.871 0-11.674 0.785-17.34 2.389-31.607 9.079-50.79 40.482-45.329 72.021-8.567 5.769-16.657 12.151-24.201 19.183-28.911-12.254-65.092 0-80.521 27.614-15.94 28.774-7.339 64.649 18.91 83.115-2.014 10.138-3.209 20.514-3.55 30.583-13.517 5.461-24.61 15.189-31.778 28.058-8.294 14.814-10.342 32.017-5.666 48.367 8.738 30.652 40.38 50.654 71.987 45.329 5.734 8.533 12.117 16.589 19.183 24.201-5.7 13.346-6.656 28.058-2.628 42.257 4.642 16.35 15.394 29.935 30.242 38.195 27.716 15.394 64.956 6.656 82.978-18.876 10.138 2.014 20.412 3.209 30.686 3.55 11.913 29.15 45.534 46.182 76.425 37.41 31.539-9.011 50.756-40.414 45.295-71.919 8.567-5.734 16.623-12.117 24.235-19.217 29.764 12.663 65.161 0 80.452-27.682 8.26-14.95 10.308-32.017 5.598-48.469-3.994-14.131-12.595-26.283-24.474-34.611 1.98-10.069 3.14-20.412 3.55-30.583 29.867-12.083 46.353-44.851 37.444-76.425-8.738-30.686-40.55-50.688-72.021-45.295-5.734-8.533-12.083-16.589-19.149-24.132 5.666-13.346 6.656-28.058 2.662-42.257-4.71-16.35-15.394-30.003-30.31-38.229-27.785-15.462-64.956-6.519-83.012 18.876-10.103-2.048-20.343-3.174-30.618-3.55-9.557-23.791-33.007-39.902-59.051-39.902zM196.13 15.531c-4.471-15.599 4.676-32.017 20.343-36.489 15.053-4.301 32.085 5.086 36.42 20.446 0.034 0.205 0.683 3.925 0.717 4.13 1.468 8.329 7.987 14.404 17.306 14.131l4.779-0.068c14.78 0 29.423 2.048 43.622 5.803 8.533 2.321 17.476-2.185 20.48-10.615 0.239-0.683 1.058-3.55 1.229-4.198 6.827-12.254 25.702-18.193 39.629-10.479 6.861 3.789 11.878 10.138 13.995 17.783 2.15 7.578 1.229 15.497-2.594 22.357-0.614 0.614-2.185 2.082-2.731 2.799-5.052 6.929-4.198 16.589 2.15 22.494 11.981 11.23 22.084 24.030 30.276 38.161 4.301 7.407 13.38 10.479 21.231 7.202l3.823-1.604c15.394-4.335 32.119 4.983 36.454 20.378 4.471 15.633-4.676 32.017-20.343 36.489-0.034 0-3.55 0.512-3.55 0.512-8.67 1.161-14.985 8.704-14.814 17.442 0.512 16.35-1.399 32.666-5.666 48.401-2.253 8.329 2.082 16.998 10.035 20.275 0.785 0.341 4.096 1.331 4.983 1.536 5.734 3.277 10.684 9.387 12.834 16.998 2.15 7.714 1.229 15.599-2.56 22.494-7.748 13.756-26.351 19.217-40.175 11.503-0.58-0.614-1.98-2.15-2.56-2.662-6.929-5.12-16.691-4.335-22.699 2.082-11.162 11.947-23.996 22.050-38.127 30.242-7.441 4.335-10.581 13.517-7.202 21.402l1.536 3.652c4.471 15.667-4.71 32.017-20.378 36.42-15.531 4.403-32.085-4.983-36.42-20.378l-0.58-3.55c-1.161-8.602-8.636-14.95-17.374-14.746l-4.745 0.068c-14.882 0-29.525-1.946-43.691-5.734-8.226-2.253-16.862 2.014-20.173 9.865-0.375 0.785-1.399 4.096-1.604 4.983-6.793 12.083-25.668 17.988-39.561 10.274-6.895-3.857-11.913-10.138-14.029-17.749-2.15-7.714-1.229-15.531 2.594-22.391 0.649-0.717 2.185-2.116 2.731-2.731 5.052-6.963 4.164-16.589-2.15-22.494-11.913-11.162-22.050-23.962-30.31-38.161-4.403-7.748-13.926-10.684-22.016-6.929-1.058 0.546-2.116 0.99-3.243 1.331-14.336 4.062-31.949-5.12-36.284-20.378-2.15-7.578-1.229-15.565 2.594-22.46s10.138-11.913 17.749-14.029c0.068 0 3.584-0.512 3.652-0.546 8.602-1.229 14.882-8.738 14.643-17.408-0.512-16.35 1.434-32.666 5.7-48.401 2.253-8.397-2.15-17.135-10.274-20.446-0.717-0.273-3.789-1.092-4.54-1.399-13.312-7.373-18.364-25.293-10.479-39.561 7.646-13.619 26.317-19.217 40.209-11.401 0.068 0.614 1.502 1.877 3.14 3.004 6.929 4.779 16.316 3.686 22.084-2.355 11.162-11.913 23.996-22.084 38.127-30.31 7.646-4.301 10.718-13.722 7.134-21.641l-1.331-3.345zM275.524 110.865v0c-6.997 0-13.995 0.922-20.719 2.867-19.456 5.53-35.669 18.398-45.534 36.147-9.899 17.783-12.22 38.195-6.69 57.651 11.093 39.117 54.135 63.454 93.696 52.19 19.49-5.53 35.703-18.33 45.534-36.181 9.865-17.783 12.254-38.093 6.724-57.617-9.284-32.393-39.287-55.057-73.011-55.057zM275.524 228.454c-18.603 0-35.089-12.39-40.175-30.345-3.038-10.684-1.775-22.050 3.652-31.846 5.427-9.728 14.336-16.794 25.054-19.866 21.879-6.315 45.466 7.202 51.575 28.774 3.038 10.684 1.741 22.050-3.652 31.881-5.461 9.728-14.336 16.794-25.020 19.866-3.789 1.092-7.612 1.536-11.435 1.536z" />
<glyph unicode="&#xe606;" glyph-name="profile" d="M921.6 960h-819.2c-9.4 0-17.1-7.6-17.1-17.1v-989.9c0-9.4 7.6-17.1 17.1-17.1h819.2c9.4 0 17.1 7.7 17.1 17.1v989.9c0 9.5-7.7 17.1-17.1 17.1zM904.5-29.9h-785v955.8h785.1v-955.8zM511.8 317v0 0zM511.8 317c121.7 0 220.6 69.6 220.6 155.1 0 52.1-39.8 136.4-105 188.6 9.3 24.9 14.6 50.4 14.6 72.3 0 71.8-58.4 130.2-130.1 130.2s-130.2-58.4-130.2-130.2c0-21.9 5.2-47.4 14.5-72.2-65.2-52.2-105-136.6-105-188.6 0-85.6 99-155.2 220.6-155.2zM511.8 829c53 0 96.1-43.1 96-96 0-55.7-46.5-148.1-96-148.1s-96 92.4-96 148.1c0 52.9 43.1 96 96 96zM410.9 628.6c23.5-43.1 59.3-77.9 100.9-77.9s77.4 34.7 100.9 77.8c51.8-44.8 85.6-114 85.6-156.4 0-66.7-83.7-121-186.5-121s-186.5 54.3-186.5 121c0 42.4 33.8 111.6 85.6 156.5zM290.1 209.1h477.9c9.4 0 17.1 7.7 17.1 17.1s-7.7 17.1-17.1 17.1h-477.9c-9.4 0-17.1-7.7-17.1-17.1s7.7-17.1 17.1-17.1zM290.1 72.5h477.9c9.4 0 17.1 7.7 17.1 17.1s-7.7 17.1-17.1 17.1h-477.9c-9.4 0-17.1-7.7-17.1-17.1s7.7-17.1 17.1-17.1z" />
<glyph unicode="&#xe607;" glyph-name="medal" d="M512 459.4v0c80 0 145.1 65.1 145.1 145.1s-65.1 145-145.1 145c-80 0-145.1-65.1-145.1-145.1s65.1-145 145.1-145zM512 715.4c61.2 0 110.9-49.8 110.9-110.9s-49.7-111-110.9-111-110.9 49.8-110.9 110.9 49.8 111 110.9 111zM996 143.8l-234.6 391.2c-1.5 2.4-3.5 4.4-5.8 5.8 5.3 20.4 8.2 41.7 8.2 63.7 0 138.8-113 251.7-251.7 251.7-138.8 0-251.7-112.9-251.7-251.7 0-22 2.8-43.3 8.2-63.7-2.3-1.4-4.3-3.3-5.8-5.8l-234.8-391.2c-3.7-6-3.1-13.9 1.3-19.4 4.4-5.6 11.9-7.8 18.7-5.5l224.7 74.9 149-148.9c3.2-3.3 7.6-5 12.1-5v0c1.5 0 3 0.2 4.5 0.7 5.9 1.5 10.5 6.3 12 12.2l61.7 246.6 61.7-246.6c1.5-5.8 6.1-10.7 12-12.3 1.5-0.4 3.1-0.6 4.6-0.6v0c4.5 0 8.8 1.8 12.2 5.1l148.9 148.9 224.6-75c6.7-2.3 14.2-0.1 18.7 5.5 4.5 5.5 5 13.2 1.3 19.4zM512 822v0c120 0 217.6-97.6 217.6-217.6s-97.6-217.6-217.6-217.6c-120 0-217.6 97.6-217.6 217.6s97.6 217.6 217.6 217.6zM424.6 90.3l-135.2 135c-4.6 4.6-11.3 6.2-17.5 4.1l-190.9-63.6 201.3 335.6c36.6-81.3 115.2-139.8 208-147.8l-65.7-263.3zM752.1 229.4c-6.1 2.1-12.9 0.5-17.5-4.1l-135.2-135.1-65.9 263.4c92.8 7.9 171.4 66.4 208.1 147.7l201.4-335.5-190.9 63.6z" />
<glyph unicode="&#xe608;" glyph-name="wallet" d="M875.9 799l-8.7 68.1c-3.3 26.7-18.1 50.7-40.2 65.8-22.3 15.2-49.9 20.1-76 13.7l-588.8-146.7c-89.8-2.2-162.2-76-162.2-166.3v-520.5c0-91.7 74.6-166.4 166.4-166.4h691.2c91.8 0 166.4 74.7 166.4 166.4v520.5c0 85.6-64.9 156.2-148.1 165.4zM989.9 185.6h-129.3c-84.6 0-153.6 68.9-153.6 153.6s69 153.6 153.6 153.6h129.3v-307.2zM759.3 913.4c16.6 4.2 34.3 1 48.4-8.7s23.4-25 25.6-42l8-62.8h-537.5l455.5 113.5zM857.6-19.2h-691.2c-72.9 0-132.3 59.3-132.3 132.3v520.5c0 72.9 59.3 132.3 132.3 132.3v0h691.2c72.9 0 132.3-59.3 132.3-132.3v-106.7h-129.3c-103.5 0-187.7-84.2-187.7-187.7s84.2-187.7 187.7-187.7h129.3v-38.5c0-72.9-59.4-132.2-132.3-132.2zM779.5 356.2c0-32.9 26.8-59.7 59.7-59.7s59.7 26.8 59.7 59.7-26.7 59.8-59.6 59.8-59.8-26.8-59.8-59.8zM864.9 356.2c0-14.1-11.5-25.6-25.6-25.6s-25.6 11.5-25.6 25.6 11.5 25.6 25.6 25.6 25.6-11.4 25.6-25.6zM102.4 663.5h68.3v-34.1h-68.3v34.1zM204.8 663.5h102.4v-34.1h-102.4v34.1zM341.3 663.5h102.4v-34.1h-102.4v34.1zM477.9 663.5h102.4v-34.1h-102.4v34.1zM614.4 663.5h102.4v-34.1h-102.4v34.1zM750.9 663.5h102.4v-34.1h-102.4v34.1zM887.5 663.5h68.3v-34.1h-68.3v34.1zM102.4 117.3h68.3v-34.1h-68.3v34.1zM204.8 117.3h102.4v-34.1h-102.4v34.1zM341.3 117.3h102.4v-34.1h-102.4v34.1zM477.9 117.3h102.4v-34.1h-102.4v34.1zM614.4 117.3h102.4v-34.1h-102.4v34.1zM750.9 117.3h102.4v-34.1h-102.4v34.1zM887.5 117.3h68.3v-34.1h-68.3v34.1z" />
<glyph unicode="&#xe609;" glyph-name="administrator" d="M501.009 246.409c-123.665 0-224.188 137.762-231.97 258.219-26.522 7.202-47.172 30.993-47.172 57.515v85.333c0 24.337 21.436 43.042 34.133 51.985v76.015c0 81.442 56.9 143.155 132.949 145.033 15.497 6.417 81.408 32.051 148.651 32.051 104.55 0 162.133-62.908 162.133-177.084v-68.71c56.866-3.243 68.267-23.825 68.267-59.29v-85.333c0-27.887-16.35-50.176-40.073-57.31-7.202-122.709-103.799-258.423-226.918-258.423zM537.6 918.426c-68.198 0-137.489-30.276-138.172-30.549-2.15-0.99-4.506-1.468-6.895-1.468-59.324 0-102.4-46.66-102.4-110.933v-85.333c0-6.144-3.345-11.844-8.704-14.882-10.684-6.042-25.429-19.046-25.429-27.785v-85.333c0-13.141 14.404-25.6 29.662-25.6 9.421 0 17.067-7.646 17.067-17.067 0-108.203 88.474-238.933 198.315-238.933 107.008 0 193.229 130.731 193.229 238.933 0 9.421 7.68 17.067 17.067 17.067 15.462 0 22.528 13.278 22.528 25.6v85.333c0 18.125 0 25.6-51.2 25.6-9.387 0-17.067 7.646-17.067 17.067v85.333c0 96.188-41.95 142.95-128 142.95zM68.267-56.525c-9.421 0-17.067 7.68-17.067 17.067v46.933c0 120.183 81.203 192 217.225 192h55.057l64.614 93.252c5.359 7.748 15.974 9.66 23.757 4.267 7.748-5.325 9.694-16.009 4.301-23.723l-69.7-100.591c-3.209-4.608-8.431-7.339-14.029-7.339h-64c-116.361 0-183.091-57.549-183.091-157.867v-46.933c0-9.421-7.68-17.067-17.067-17.067zM955.733-56.525c-9.387 0-17.067 7.68-17.067 17.067v46.933c0 116.395-101.99 157.867-197.461 157.867h-64c-5.871 0-11.332 3.072-14.473 7.987l-66.867 107.145c-4.983 7.987-2.594 18.5 5.393 23.484 7.987 5.018 18.534 2.594 23.518-5.359l61.884-99.021h54.545c140.663 0 231.526-75.401 231.526-192v-46.933c0.068-9.523-7.612-17.169-16.998-17.169zM503.091 75.742c-2.731 0-5.461 0.717-7.919 1.946l-170.667 89.6c-8.363 4.403-11.571 14.746-7.168 23.108 4.335 8.294 14.643 11.605 23.040 7.134l162.816-85.402 166.263 85.47c8.397 4.335 18.705 1.024 23.040-7.339 4.267-8.397 0.956-18.705-7.441-23.040l-174.182-89.6c-2.423-1.229-5.154-1.877-7.782-1.877z" />
<glyph unicode="&#xe60a;" glyph-name="calendar" d="M170.7 541.9h682.7c9.4 0 17.1 7.6 17.1 17.1 0 9.4-7.7 17.1-17.1 17.1h-682.7c-9.4 0-17.1-7.6-17.1-17.1s7.6-17.1 17.1-17.1zM938.7 746.7h-153.6v68.3c0 9.4-7.7 17.1-17.1 17.1s-17.1-7.6-17.1-17.1v-68.3h-477.8v68.3c0 9.4-7.6 17.1-17.1 17.1s-17.1-7.6-17.1-17.1v-68.3h-153.6c-47 0-85.3-38.3-85.3-85.3v-512c0-47 38.3-85.3 85.3-85.3h853.3c47 0 85.3 38.3 85.3 85.3v512c0.1 47-38.2 85.3-85.2 85.3zM989.9 149.3c0-28.2-23-51.2-51.2-51.2h-853.4c-28.2 0-51.2 23-51.2 51.2v512c0 28.2 23 51.2 51.2 51.2 0 0 108.3 0 153.6 0v-68.3c0-9.4 7.6-17.1 17.1-17.1s17.1 7.6 17.1 17.1v68.3c164 0 313.9 0 477.9 0v-68.3c0-9.4 7.7-17.1 17.1-17.1s17.1 7.6 17.1 17.1v68.3c45.3 0 153.6 0 153.6 0 28.2 0 51.2-23 51.2-51.2v-512zM819.2 473.6h-614.4c-37.6 0-68.3-30.6-68.3-68.3v-136.5c0-37.7 30.6-68.3 68.3-68.3h614.4c37.7 0 68.3 30.6 68.3 68.3v136.5c0 37.7-30.6 68.3-68.3 68.3zM853.3 268.8c0-18.8-15.3-34.1-34.1-34.1h-614.4c-18.8 0-34.1 15.3-34.1 34.1v136.5c0 18.8 15.3 34.1 34.1 34.1h614.4c18.8 0 34.1-15.3 34.1-34.1v-136.5z" />
<glyph unicode="&#xe60b;" glyph-name="calendar-2" d="M853.3 541.9h-682.6c-9.4 0-17.1-7.6-17.1-17.1 0-9.4 7.6-17.1 17.1-17.1h682.7c9.4 0 17.1 7.6 17.1 17.1-0.1 9.4-7.8 17.1-17.2 17.1zM307.2 405.3h-136.5c-9.4 0-17.1-7.7-17.1-17.1s7.6-17.1 17.1-17.1h136.5c9.4 0 17.1 7.7 17.1 17.1s-7.7 17.1-17.1 17.1zM580.3 405.3h-136.6c-9.4 0-17.1-7.7-17.1-17.1s7.6-17.1 17.1-17.1h136.5c9.4 0 17.1 7.7 17.1 17.1s-7.6 17.1-17 17.1zM853.3 405.3h-136.5c-9.4 0-17.1-7.7-17.1-17.1s7.7-17.1 17.1-17.1h136.5c9.4 0 17.1 7.7 17.1 17.1s-7.7 17.1-17.1 17.1zM307.2 268.8h-136.5c-9.4 0-17.1-7.7-17.1-17.1s7.6-17.1 17.1-17.1h136.5c9.4 0 17.1 7.7 17.1 17.1s-7.7 17.1-17.1 17.1zM580.3 268.8h-136.6c-9.4 0-17.1-7.7-17.1-17.1s7.6-17.1 17.1-17.1h136.5c9.4 0 17.1 7.7 17.1 17.1s-7.6 17.1-17 17.1zM853.3 268.8h-136.5c-9.4 0-17.1-7.7-17.1-17.1s7.7-17.1 17.1-17.1h136.5c9.4 0 17.1 7.7 17.1 17.1s-7.7 17.1-17.1 17.1zM938.7 746.7h-187.8v68.3c0 9.4-7.7 17.1-17.1 17.1s-17.1-7.6-17.1-17.1v-68.3h-409.5v68.3c0 9.4-7.6 17.1-17.1 17.1-9.4 0-17.1-7.6-17.1-17.1v-68.3h-187.7c-47 0-85.3-38.3-85.3-85.3v-512c0-47 38.3-85.3 85.3-85.3h853.3c47 0 85.3 38.3 85.3 85.3v512c0.1 47-38.2 85.3-85.2 85.3zM989.9 149.3c0-28.2-23-51.2-51.2-51.2h-853.4c-28.2 0-51.2 23-51.2 51.2v512c0 28.2 23 51.2 51.2 51.2 0 0 123.3 0 187.7 0v-68.3c0-9.4 7.6-17.1 17.1-17.1 9.4 0 17.1 7.6 17.1 17.1v68.3c157.6 0 252 0 409.6 0v-68.3c0-9.4 7.7-17.1 17.1-17.1s17.1 7.6 17.1 17.1v68.3c64.4 0 187.7 0 187.7 0 28.2 0 51.2-23 51.2-51.2v-512z" />
<glyph unicode="&#xe60c;" glyph-name="handshake" d="M1019.1 351.4c-0.9 10-22.9 246.7-74.7 318.8-2.6 3.5-6.3 6-10.6 6.8-14.3 2.8-29.8 4.3-46 4.3-66.3 0-128.8-23.5-147-31-0.6 0.3-1.3 0.5-1.9 0.7-0.4 0.1-52.6 15.6-136.1 53-61.7 27.6-122.5 16.3-169.6-8.9-46.7 4.5-141.2 7.2-178 6.6-55.4 18.3-182.3 38.2-187.8 39-9.2 1.4-17.8-4.7-19.4-13.8-0.4-2.3-41.8-231.4-43.2-386.1-0.1-8 5.4-14.9 13.1-16.8 13.3-3.2 32.5-4.7 58.8-4.7v0c42.6 0 87.6 4.2 89.4 4.4 6.8 0.7 12.5 5.2 14.6 11.6 0.8 2.5 6.4 19.1 14.3 44.4l43.1-36.3c68.7-57.6 190.1-158.3 209-170.7 14-9.2 36.6-17.5 58.7-17.5v0c3.3 0 6.6 0.2 9.8 0.6 16.2 1.8 29.5 8.6 38.8 19.4 20.5-10.4 46-11.9 68.1-3.3 14.8 5.7 26 15.1 32.8 27.2 16.5-4.7 36.3-2.8 54.1 6 17.1 8.6 29.1 22.2 34.3 37.9 14.5-1.2 29.5 3.7 42 14.3 21 17.9 28.1 45.3 19.4 72l26.9 20.4c1.7-4.1 5-7.3 9.2-9 16.7-6.9 46.9-10.3 92.1-10.3v0c36.4 0 68.7 2.2 70 2.4 4.6 0.3 8.8 2.5 11.8 5.9 3 3.5 4.4 8.1 4 12.7zM588.8 672.7c85.8-38.5 138.3-53.9 140.5-54.6 0.7-0.2 1.4-0.4 2.2-0.5 23.4-42.2 67.4-162.6 89.9-233.1l-32.5-24.7c-46.8 69-174.4 184-243.7 230.2-4.5 3-10.2 3.7-15.3 1.8l-11-4c-20-7.3-20-7.3-34.7-8.7l-7.9-0.8c-5.1-0.5-9.6-3.2-12.5-7.5-22.5-33.6-49.6-68.4-87.9-55.7-7.3 2.4-11.2 6.7-13 14.5-6.5 27.7 18 79.1 42.5 103.1 10.6 10.4 23.6 20.5 38.4 29 1 0.4 1.9 1 2.8 1.6 39.4 22.1 90.6 32.5 142.2 9.4zM151.9 356.6c-15.9-1.2-46.5-3.3-75.2-3.3-16.9 0-28.9 0.8-37.5 1.7v0c3.1 126.7 30.5 296.3 39.6 349.3 33.7-5.6 110.9-19 155.1-31.9-12.2-97-67.5-271.1-82-315.8zM763.5 283.2c-6.1-5.2-16.2-9.3-24.5-3.5-0.2 0.2-0.5 0.3-0.8 0.5-19.9 16.4-99.8 90.5-140.4 128.5-6.9 6.5-17.7 6.1-24.1-0.8s-6.1-17.7 0.8-24.1c4.6-4.2 105.2-98.3 137.8-126.2-1.8-12.4-12.8-19.3-18.1-21.9-13.5-6.8-29.7-6.6-37.1 0.3-0.8 0.7-1.6 1.3-2.4 1.9-29.4 23.8-107.2 94.1-117 104.7-6.3 7-17.2 7.5-24.1 1.1s-7.4-17.2-1-24.1c11.1-12.2 79.9-74.3 113.7-102.4-3.5-7-10.2-11-16-13.2-14.2-5.5-35.8-4.4-49.7 8.3 0 0-0.1 0-0.1 0.1-0.1 0.1-0.3 0.3-0.4 0.4-26.5 22.4-63.4 59.2-88.2 85.8-6.4 6.9-17.2 7.2-24.1 0.8s-7.2-17.2-0.8-24.1c22.2-23.9 54-55.8 80.1-79-3.2-2.9-8-5.3-15.4-6.2-15.7-2-34.9 4.3-45.7 11.5-14.6 9.1-117 93.4-206 167.9l-54 45.5c22.3 73.3 52.5 181 61.6 252.6 30 0.1 80.2-1.3 121.2-3.6-2.5-2.2-4.9-4.5-7.2-6.8-28.4-27.9-62.3-90.4-51.8-135.2 4.5-19.2 17.1-33.1 35.6-39.2 61.4-20.2 101.2 31.4 122.4 62.5 18.3 1.8 19.6 2.1 42.9 10.6l2.7 1c80-55.5 212.2-181 236.9-232.3 8.9-18.6 2.3-33.6-6.8-41.4zM933.3 364.5c-40.1 0-61.1 2.8-71.8 5.4v0c-16.9 57.4-64.3 192.9-94.6 253.6 24.7 8.9 72.4 23.5 121 23.5 11.4 0 22.3-0.8 32.5-2.4 33.4-54.9 55.2-205.4 63-278.8-12.7-0.6-30.9-1.3-50.1-1.3z" />
<glyph unicode="&#xe60d;" glyph-name="receipt" d="M1020.1 772.3c0 91-58.3 187.7-166.4 187.7h-520.9c-1.9 0-3.8-0.3-5.6-1-60.9-8.5-96.8-73-96.8-135.6v0 0-682.7h-209.4c-9.4 0-17.1-7.7-17.1-17.1 0-78.4 63.3-187.7 166.4-187.7h426.7c0 0 0 0 0 0 103.9 0 213.7 100.9 213.7 196.3v623h192.3c9.5 0 17.1 7.6 17.1 17.1zM170.3-29.9c-73.6 0-123 75.7-131.1 136.5h350.2c8.3-47.6 49.5-102.2 102.6-136.5h-321.7zM776.6 132.3c0-75.8-95.7-162.1-179.6-162.1 0 0 0 0 0 0-88.5 0-174.9 97.2-174.9 153.6 0 9.4-7.6 17.1-17.1 17.1h-140.4v682.6c0 0 0 0 0 0 0 50.3 28.6 102.4 76.5 102.4 0 0 0 0 0 0h435.6v-793.6zM810.7 789.3v136.6h42.8c79.5 0 125.1-67.5 131.5-136.5h-174.3zM367 652.8h307.2c9.4 0 17.1 7.6 17.1 17.1 0 9.4-7.7 17.1-17.1 17.1h-307.2c-9.4 0-17.1-7.6-17.1-17.1s7.7-17.1 17.1-17.1zM367 550.4h307.2c9.4 0 17.1 7.6 17.1 17.1 0 9.4-7.7 17.1-17.1 17.1h-307.2c-9.4 0-17.1-7.6-17.1-17.1s7.7-17.1 17.1-17.1zM674.2 482.1h-307.2c-9.4 0-17.1-7.6-17.1-17.1 0-9.4 7.6-17.1 17.1-17.1h307.2c9.4 0 17.1 7.6 17.1 17.1s-7.7 17.1-17.1 17.1z" />
<glyph unicode="&#xe60e;" glyph-name="add-file" d="M878.9 960h-525.1c-4.7 0-9.2-1.9-12.4-5.3l-225.8-238.2c-3-3.2-4.7-7.4-4.7-11.7v-751.7c0-9.4 7.6-17.1 17.1-17.1h426.7c9.4 0 17.1 7.7 17.1 17.1s-7.7 17.1-17.1 17.1h-409.6v716.7c0 0 0 0 0 0h221.9c9.4 0 17.1 7.6 17.1 17.1v221.9h477.9v-614.4c0-9.4 7.7-17.1 17.1-17.1s17.1 7.7 17.1 17.1v631.4c-0.2 9.5-7.9 17.1-17.3 17.1zM167 721.1l182.9 192.9v-193h-182.9zM896 106.7h-102.4v102.4c0 9.4-7.7 17.1-17.1 17.1s-17.1-7.7-17.1-17.1v-102.4h-102.3c-9.4 0-17.1-7.7-17.1-17.1s7.7-17.1 17.1-17.1h102.4v-102.4c0-9.4 7.7-17.1 17.1-17.1s17.1 7.7 17.1 17.1v102.4h102.3c9.4 0 17.1 7.7 17.1 17.1s-7.7 17.1-17.1 17.1z" />
<glyph unicode="&#xe60f;" glyph-name="business-man-woman" horiz-adv-x="1331" d="M1043.8 190.6l-82.3 104.8c204.6 19 280 137.2 299.1 175.7 2.7 5.2 2.4 11.4-0.6 16.5-20.2 33.6-74.8 128.9-83.3 164.8-40.3 170.8-139.6 268.7-272.6 268.7-38.2 0-74.6-8.6-108.2-25.7-8.4-4.3-11.9-14.5-7.6-22.9s14.5-11.8 23-7.5c28.8 14.6 60.1 22 92.8 22 164.5 0 222.2-169.5 239.4-242.4 9.9-41.8 65.2-137.3 82.4-166.3-25.1-44.4-107.7-151.3-321.8-151.3-49.9 0-93.8 10.3-133.8 21.5-9 2.5-18.5-2.8-21-11.9-2.5-9 2.8-18.5 11.8-21.1 42.4-11.8 89-22.7 143-22.7v0c6 0 11.9 0.1 17.8 0.2 0.6-2.2 1.6-4.4 3.1-6.3l97.1-123.6c3.3-4.1 8.3-6.5 13.4-6.5 101.1 0 261.5-40.5 261.5-149.2v-46.9c0-9.4 7.7-17.1 17.1-17.1v0c9.4 0 17.1 7.6 17 17v46.9c-0.1 131.4-168.6 181.2-287.3 183.3zM469 246.4v0 0zM715.6 199.5h-54.2l-57.7 98.6c-1.2 2.1-2.8 3.9-4.6 5.2 51.3 50.5 83.5 127.5 87.3 201.7 15.2 5.2 30.4 19.7 30.4 57.1v85.3c0 19.5 0 50.5-34.1 58.1v69.9c0 114.2-57.6 177.1-162.1 177.1-67.2 0-133.2-25.6-148.7-32.1-76-1.9-132.9-63.6-132.9-145v-72.7c-27.1-8.9-68.3-27.2-68.3-55.3v-85.3c0-29.8 31.8-51.3 60-57.7 5.3-78.5 51-164.2 117.3-214.5l-51.2-90.5h-54c-120.9 0.1-242.8-59.3-242.8-191.9v-46.9c0-9.4 7.6-17.1 17.1-17.1v0c9.4 0 17.1 7.6 17.1 17v46.9c0 116.5 112.4 157.9 208.7 157.9h60.5l73.2-164.7c2.3-5.1 7-8.9 12.5-9.9 1-0.2 2.1-0.3 3.1-0.3v0c4.5 0 8.8 1.8 12 5.2l73.2 73.2 73.3-73.3c3.2-3.2 7.6-5 12.1-5v0c0.9 0 1.8 0.1 2.7 0.2 5.4 0.9 10 4.3 12.5 9.1l84.1 165.6h53.5c95 0 206-41.3 206-157.9v-46.9c0-9.4 7.7-17.1 17.1-17.1v0c9.4 0 17.1 7.6 17.1 17.1v46.9c-0.1 132.7-120.7 192-240.2 192zM264.3 519.5c0 9.4-7.7 17.1-17.1 17.1-17.5 0-42.5 15.1-42.5 25.6l-0.2 84c3.1 7 30.3 20.4 56 27.6 7.4 2 12.5 8.8 12.5 16.4v85.3c0 64.3 43.1 110.9 102.4 110.9 2.4 0 4.7 0.5 6.9 1.5 0.7 0.3 70 30.5 138.2 30.5 86.1 0 128-46.8 128-143v-85.3c0-9.4 7.6-17.1 17.1-17.1 16.6 0 17.1-0.7 17.1-25.6v-85.3c0-25.6-7.8-25.6-12.9-25.6-9.4 0-17.1-7.6-17.1-17.1 0-112.8-78.5-238.9-183.6-238.9-110.3 0-204.8 131.5-204.8 239zM469 246.4c39 0 74.4 13.3 104.7 35.4 0.1-0.3 0.3-0.6 0.4-0.9l53.6-91.6-149.8-77-143.8 83.9 42.5 75c28.4-15.6 59.6-24.8 92.4-24.8zM397.6 37.1l-49.5 111.4 101.6-59.3-52.1-52.1zM558.2 36.2l-52.2 52.1 106.5 54.7-54.3-106.8z" />
<glyph unicode="&#xe610;" glyph-name="apple-store" d="M512 934.4c-268.2 0-486.4-218.2-486.4-486.4s218.2-486.4 486.4-486.4c268.1 0 486.4 218.2 486.4 486.4s-218.3 486.4-486.4 486.4zM512-4.3c-249.4 0-452.3 202.9-452.3 452.3s202.9 452.3 452.3 452.3c249.4 0 452.3-202.9 452.3-452.3s-202.9-452.3-452.3-452.3zM862.3 580.3h-141c-20.7 36.7-43.5 67.1-60.8 86.3-26.9 29.9-33.3 26.3-41.1 23.4-10.6-3.9-12.9-15.2-13.7-19.5-3-15.2-4-52.8 2-98.7h-162.4l28.1 64.9c3.8 8.6-0.2 18.7-8.8 22.5l-81.3 35.3c-4.2 1.8-8.9 1.9-13.1 0.2s-7.6-5-9.4-9.1l-49.3-113.7h-162.2c-9.4 0-17.1-7.6-17.1-17.1v-213.3c0-9.4 7.6-17.1 17.1-17.1h63.5l-3-101.6c-0.2-6.9 3.9-13.4 10.3-16.2 2.2-0.9 4.5-1.4 6.8-1.4v0c4.4 0 8.8 1.7 12 5l84.8 84.3c1.5 1.5 2.8 3.3 3.6 5.3l10.8 24.9c1.1-0.2 2.1-0.3 3.2-0.3h353.9c-0.2-7.4 0.9-15 3.7-22.4 9.3-25.2 53.6-80.3 86.3-95.4 2.2-1.1 4.7-1.6 7.1-1.6v0c2 0 4 0.4 5.9 1 4.3 1.5 7.6 4.7 9.6 8.9 10.2 22.1 12.5 61.5 10 92.5h44.3c9.4 0 17.1 7.7 17.1 17.1v238.7c0.1 9.4-7.5 17.1-16.9 17.1zM741.5 390l-19.8-7.3c-15.7 16.3-28.6 35.2-39.1 55.3l51.9 19.2c5.3-22.3 8.1-45 7-67.2zM637.4 641.6c24.5-28 64.8-86.3 87.5-151.7l-56.5-20.9c-11.4 28.8-18.9 58.8-23.7 86.3-0.1 1.4-0.3 2.8-0.7 4.2-5.3 33.2-6.9 62.6-6.6 82.1zM325.7 381.7l-49.9 21.7 77.2 178 50-21.7-77.3-178zM385.4 656.2l50-21.7-18.9-43.5-50 21.7 18.9 43.5zM218.7 357.5c-1.7 0.6-3.5 0.9-5.3 0.9h-46.9v179.2h130.4l-78.2-180.1zM245.2 264.5l2.2 73.5 14.8 34 49.9-21.7-14.8-34-52.1-51.8zM430.5 537.6h182.8c12.1-61.3 37-130.1 84.4-179.2h-345l77.8 179.2zM782.3 249.1c-21.4 18.4-46 50-51.4 64.5-2.5 6.6-2.1 13.6 0.6 19.5 0.3 0.5 0.5 1 0.7 1.5 2.9 5.5 7.7 9.9 14 12.2 2.9 1 5.9 1.6 9 1.6v0c10.8 0 20.6-6.8 24.3-17 5.3-14.5 7.2-54.4 2.8-82.3zM845.2 341.3h-33c-0.2 0.7-0.5 1.4-0.7 2.1-6.2 16.9-20.1 29.5-36.5 35.4 5.1 57.2-12 116.3-36 167.3h106.2v-204.8z" />
<glyph unicode="&#xe611;" glyph-name="google-play" d="M889.5 546.8l-133.8 77.1c-0.4 0.4-0.8 0.7-1.2 1.1-2.3 1.9-4.9 3.2-7.6 4l-481 277.2c-3.3 3.8-7.6 6.2-12.3 7.1l-14 8.1c-25 14.4-49.5 21.7-73 21.7-60.1-0.1-100.5-48.5-100.5-120.6v-749.1c0-72 40.3-120.5 100.3-120.5v0c23.5 0 47.9 7.2 72.9 21.6l13.9 8c5 0.8 9.7 3.4 13.1 7.6l481.3 276.9c2.5 0.8 4.9 2.1 7 3.9 0.2 0.1 0.3 0.3 0.5 0.4l135.1 77.7c43.7 25.3 67.8 60.2 67.8 98.5-0.1 38.6-24.4 73.8-68.5 99.3zM708.3 602l-97.5-120-269.4 331.4 366.9-211.4zM166.4-4.2c-36 0-57.5 29-57.5 77.6v749.1c0 48.6 21.6 77.7 57.8 77.7v0c15.6 0 33.5-5.5 51.6-15.9l19.3-11.1 345.5-425.2-344.9-424.6-20.3-11.7c-18.1-10.4-35.9-15.9-51.5-15.9zM610.7 414l97.6-120-366.5-210.9 268.9 330.9zM868.8 386.3l-122.9-70.7-107.6 132.4 107.5 132.3 122.3-70.5c30.3-17.5 47-39.6 47-62.1 0-22.4-16.4-44.2-46.3-61.4z" />
<glyph unicode="&#xe612;" glyph-name="facebook" d="M925.491-64h-225.758c-9.387 0-17.067 7.68-17.067 17.067v375.467c0 9.387 7.68 17.067 17.067 17.067h127.863l32.017 102.4h-159.881c-9.387 0-17.067 7.646-17.067 17.067v147.217c0 46.763 50.893 74.684 136.158 74.684h34.509v102.4h-77.175c-89.19 0-161.758-65.058-161.758-145.067v-179.2c0-9.421-7.68-17.067-17.067-17.067h-153.6v-102.4h153.6c9.387 0 17.067-7.646 17.067-17.067v-375.467c0-9.421-7.68-17.067-17.067-17.067h-482.509c-56.866 0-114.825 55.979-114.825 110.933v810.633c0 58.607 60.621 102.4 114.825 102.4h810.667c55.228 0 98.509-44.988 98.509-102.4v-810.667c0-53.521-39.595-110.933-98.509-110.933zM716.8-29.867h208.691c37.99 0 64.375 40.482 64.375 76.8v810.667c0 38.912-27.682 68.267-64.375 68.267h-810.667c-36.557 0-80.691-30.447-80.691-68.267v-810.667c0-36.591 42.223-76.8 80.691-76.8h465.442v341.333h-153.6c-9.421 0-17.067 7.68-17.067 17.067v136.533c0 9.421 7.646 17.067 17.067 17.067h153.6v162.133c0 98.816 87.859 179.2 195.891 179.2h94.242c9.387 0 17.067-7.646 17.067-17.067v-136.533c0-9.421-7.68-17.067-17.067-17.067h-51.575c-47.104 0-102.025-10.615-102.025-40.55v-130.15h166.025c5.427 0 10.547-2.594 13.756-6.963 3.209-4.335 4.13-10.001 2.492-15.189l-42.667-136.533c-2.219-7.066-8.806-11.981-16.316-11.981h-123.29v-341.299z" />
<glyph unicode="&#xe613;" glyph-name="twitter" d="M348.126 49.63c-103.799 0-209.374 29.764-313.856 88.474-7.1 3.959-10.377 12.356-7.851 20.139 2.526 7.817 9.933 12.698 18.193 11.708 81.647-9.318 172.612 11.469 236.919 52.531-75.844 14.473-137.353 61.884-169.097 131.959-2.765 6.11-1.707 13.312 2.731 18.295s11.366 6.997 17.783 5.052c16.316-4.983 32.836-7.339 47.991-6.997-57.549 29.116-128.717 94.276-128.717 194.697 0 6.588 3.789 12.595 9.762 15.428s13.005 1.98 18.091-2.185c11.537-9.387 24.371-16.35 37.683-20.514-19.456 22.665-37.035 53.077-46.251 88.508-13.926 53.623-5.871 107.93 23.279 157.013 2.867 4.847 7.885 7.919 13.517 8.329 5.359 0.375 11.025-1.98 14.541-6.383 63.966-79.804 177.971-176.435 361.813-192.58-4.642 54.955 10.581 150.426 89.702 196.642 94.686 55.364 187.358 47.821 265.694-21.709 36.147 7.475 93.935 32.666 106.257 41.301 5.871 4.096 13.619 4.13 19.49 0 5.871-4.096 8.567-11.435 6.724-18.364-6.246-23.142-21.367-49.289-39.697-71.1 17.613 4.676 33.417 9.899 40.55 13.653 6.861 3.55 15.189 2.048 20.514-3.652 5.086-5.666 5.939-14.131 1.843-20.617-25.429-40.175-66.867-77.517-93.525-96.905 11.605-132.642-41.95-279.074-144.418-393.967-108.715-121.719-254.054-188.757-409.429-188.757h-0.239zM117.214 134.724c77.38-33.86 154.795-50.995 230.912-50.995 0.034 0 0.034 0 0.068 0 145.51 0 281.873 63.010 384 177.323 98.816 110.66 149.265 251.733 134.997 377.583-0.717 6.383 2.15 12.629 7.578 16.179 13.824 9.148 36.489 27.443 57.617 49.63-21.743-5.393-44.476-9.455-59.87-9.523v0c-8.192 0-15.189 5.803-16.725 13.824-1.604 8.021 2.799 16.077 10.445 19.115 15.155 6.007 36.762 26.863 52.975 50.483-27.136-11.264-59.529-22.255-82.125-25.498-4.983-0.683-10.274 0.922-14.063 4.471-68.813 64.649-147.217 72.055-231.458 22.938-76.561-44.749-78.268-148.787-70.246-181.623 1.297-5.257 0-10.786-3.447-14.95s-8.704-6.519-14.063-6.144c-193.229 10.206-317.338 103.049-390.827 186.778-18.671-43.315-15.36-82.364-8.465-109.022 12.868-49.527 45.363-87.586 70.144-101.99 6.144-3.55 9.421-10.547 8.26-17.545s-6.519-12.561-13.483-13.926c-26.214-5.257-54.443-1.126-79.906 10.854 19.012-96.734 118.784-142.165 146.261-145.135 6.793-0.717 12.459-5.461 14.438-12.015 2.014-6.519-0.068-13.585-5.291-17.988-19.319-16.35-49.527-23.484-84.070-20.070 36.147-53.282 94.857-83.968 165.717-85.538 6.997-0.171 13.21-4.574 15.633-11.127 2.423-6.451 0.614-13.926-4.608-18.637-54.135-48.572-136.397-80.759-220.399-87.45z" />
<glyph unicode="&#xe614;" glyph-name="building" d="M887.5 823.5h-85.3v119.4c0 9.4-7.7 17.1-17.1 17.1h-512c-9.5 0-17.1-7.6-17.1-17.1v-119.5h-119.5c-9.4 0-17.1-7.6-17.1-17.1v-853.3c0-9.4 7.6-17.1 17.1-17.1h750.9c9.4 0 17.1 7.7 17.1 17.1v853.4c0 9.4-7.6 17.1-17 17.1zM290.1 925.9h477.9v-102.4h-477.9v102.4zM870.4-29.9h-716.8v819.2h716.8v-819.2zM477.9 721.1h-204.8c-9.4 0-17.1-7.6-17.1-17.1v-170.7c0-9.4 7.6-17.1 17.1-17.1h204.8c9.4 0 17.1 7.6 17.1 17.1v170.7c-0.1 9.4-7.7 17.1-17.1 17.1zM460.8 550.4h-170.7v136.5h170.7v-136.5zM580.3 721.1c-9.4 0-17.1-7.6-17.1-17.1v-170.7c0-9.4 7.7-17.1 17.1-17.1h204.8c9.4 0 17.1 7.6 17.1 17.1v170.7c0 9.4-7.7 17.1-17.1 17.1h-204.8zM768 550.4h-170.7v136.5h170.7v-136.5zM477.9 482.1h-204.8c-9.4 0-17.1-7.6-17.1-17.1v-170.7c0-9.4 7.6-17.1 17.1-17.1h204.8c9.4 0 17.1 7.7 17.1 17.1v170.8c-0.1 9.4-7.7 17-17.1 17zM460.8 311.5h-170.7v136.5h170.7v-136.5zM785.1 482.1h-204.8c-9.4 0-17.1-7.6-17.1-17.1v-170.7c0-9.4 7.7-17.1 17.1-17.1h204.8c9.4 0 17.1 7.7 17.1 17.1v170.8c-0.1 9.4-7.7 17-17.1 17zM768 311.5h-170.7v136.5h170.7v-136.5zM477.9 243.2h-204.8c-9.4 0-17.1-7.7-17.1-17.1v-170.7c0-9.4 7.6-17.1 17.1-17.1h204.8c9.4 0 17.1 7.7 17.1 17.1v170.7c-0.1 9.4-7.7 17.1-17.1 17.1zM460.8 72.5h-170.7v136.6h170.7v-136.6zM785.1 243.2h-204.8c-9.4 0-17.1-7.7-17.1-17.1v-170.7c0-9.4 7.7-17.1 17.1-17.1h204.8c9.4 0 17.1 7.7 17.1 17.1v170.7c-0.1 9.4-7.7 17.1-17.1 17.1zM768 72.5h-170.7v136.6h170.7v-136.6z" />
<glyph unicode="&#xe615;" glyph-name="sebrae" horiz-adv-x="1448" d="M570.1 782.3h430.5l-13.9-67h-430.5l13.9 67zM467.2 289.5h430.5l-13.9-67h-430.7l14.1 67zM547.3 673.2h430.7l-13.9-66.7h-430.7l13.9 66.7zM444.4 180.7h430.7l-13.9-67h-430.9l14.1 67zM33.6 407.9h64.4c-0.9-4-1.2-8-0.9-12.2 0.5-5 2.8-9.9 7.1-14.1 4-4 11.7-6.4 22.1-6.4 11.1 0 20 2.3 27 6.8s10.8 9.6 12.2 15c0.5 2.1 0.3 4 0 6.3-0.9 4.9-3.8 9.4-8.7 13.6-5 4.2-12.9 6.8-22.6 8.7-33.4 6.6-55.4 15.8-66 25.4s-14.6 24.4-11.5 44.4c3.8 24.7 17.6 42.5 39.7 54.3 21.8 11.8 46 17.6 72.6 17.6 37.1-1.2 60.2-8.5 69.5-21.9 9.2-13.6 11.7-30.1 7.5-50l-64.9 0.3c1.6 7.1 0.3 13.1-3.7 17.6-3.8 4.7-10.8 7-20.7 7-8.5 0-15.7-2.1-21.6-6.1-5.7-4-9.4-8.5-10.6-13.4-0.2-0.7-0.3-1.4-0.3-2.1-0.5-4.9 1.2-9.4 5.2-13.6s10.1-6.6 18.5-7.7c4.7-0.9 9.6-1.9 14.6-2.8s10.3-2.1 15.5-3.5c16.7-4.2 31.3-11 44.2-20.4 12.7-9.4 17.1-24.7 12.5-46-5.7-27.2-19.5-46.8-41.4-58.7-21.9-11.8-46.7-17.8-74.2-17.8-33.6 0-57.4 6.6-71.2 20s-18.6 33.1-14.4 58.8l0.1 0.9zM483.3 562.8l-9.7-47h-109.8l-9.4-45.3h102l-9.7-47h-102l-9.4-44.9h109.7l-9.4-44.6h-174.8l47.9 229.1h174.6v-0.3zM626.2 562.8c4.2 0 9.7 0.2 17.6-0.7 8.4-1 16-2.4 24.5-4.9 10.3-3 18.6-7.8 27-16.2 10.3-10.4 10.6-26.6 7.8-40.2-2.6-12.9-9.6-23.8-20.4-33.1-11-9.1-24-14.1-39.5-15 12.9-3.7 24-9.7 33.8-18.1 9.7-8.4 12.7-21.6 8.9-39.3-4.7-22.5-16-38.3-33.8-47.7-17.9-9.4-42.5-14.3-74-14.3l-102 0.3 47.9 229.2h102.2zM585.3 378.5c9.4-0.2 16.7 1.6 21.9 5.2s8.9 7.7 11 12.2c3.8 8.7 1.9 17.6-4.5 24.4-3.5 3.7-8.9 5.4-16.2 5.4h-37.1l-9.7-47h34.6v-0.2zM602.7 472.8c9.9 0 17.2 1.6 22.3 5.4 4.9 3.8 8.2 9.6 9.7 17.1 1.2 6.3 0 11.5-3.8 15.8s-10.1 6.6-18.8 6.6h-32.2l-9.4-44.9h32.2zM859.8 562.8c22.5-0.9 41.1-2.8 62.5-12.7 16.5-7.7 22.5-23.5 17.4-47.2-4-19-12.2-32.6-24.9-41.1-12.5-8.4-26.8-13.9-42.5-16.4 22.1-0.9 34.6-8.5 37.1-22.6 2.6-14.1 3-29.8 1-46.5-0.9-8-1.6-16.4-2.1-24-0.3-6.8-0.2-13.1 0.7-18.8l-69.8 0.3c-0.9 3.7-1 8.2-0.5 13.8 0.9 8.2 2.4 16.5 3.7 24.7 1.6 12 1.7 23.2 0.5 33.2s-8 15.1-20.2 15.1h-29.7l-18.1-86.9h-65.1l47.8 229.3h102.2v-0.2zM802.5 465.7h24.5c10.3 0 18.8 0 28.7 5 7.1 3.5 11.7 9.6 13.8 19.1 1.9 9.1 0 15.7-5.7 19.8-5.7 4.2-13.6 6.1-23.8 6.1h-27l-10.5-50zM1143.6 562.8l41.8-229.1h-72.2l-6.1 42h-89.7l-24.4-42h-66.8l139.8 229.1h77.6zM1090.8 515.8l-49.1-92.4h57.1l-8 92.4zM1436 562.8l-9.7-47h-109.7l-9.4-45.3h102l-9.7-47h-102l-9.4-44.9h109.7l-9.4-44.6h-175l47.9 229.1h174.7v-0.3z" />
<glyph unicode="&#xe616;" glyph-name="qipu" horiz-adv-x="1448" d="M1007.4 577.7c-14.8 62.9-51.9 107.4-116.7 122.3-61.1 13.9-121.4 6.6-179.7-12.9-25.9-8.4-47.2-24.1-52.9-52.9-3.6-15.7-4.6-32.4-4.6-48.1 0-167.7 0-345.4 0-513.1 0-5.5 0.9-11.1 0.9-15.7 1.8-13.9 9.3-21.3 23.1-21.3 20.4-0.9 41.7-0.9 62 0 12.9 0 19.5 7.5 22.2 19.5 0.9 5.5 1.8 11.1 1.8 15.7 0 41.7 0 93.5 0 137.1 5.5-0.9 10.2-0.9 13.9-1.8 26.8-0.9 54.7-4.6 81.5-2.7 43.6 2.7 82.4 18.6 111.2 51.9 26.8 30.6 40.8 67.6 43.6 107.4 3.6 47.2 3.6 94.4 2.7 141.6 0.1 24.9-3.5 49-9 73v0zM905.5 377.8c0-12-1.8-25-5.5-37-7.5-24.1-26.8-36.1-49.9-37.9-21.3-1.8-43.6-0.9-64.9 1.8-17.7 1.8-22.2 8.4-22.2 26.8 0 31.5 0 62.9 0 94.4 0 9.3 0 18.6 0 27.7 0 39.7 0 79.7 0 119.4 0 21.3 3.6 27.7 24.1 30.6 20.4 2.7 42.7 4.6 62.9 2.7 34.3-3.6 53.8-25.9 54.7-62 0.9-28.8 0.9-57.4 0.9-87.1-0.1-26.6 0.8-52.6-0.1-79.4v0zM372.9 613.1c-1.8 34.3-18.6 58.3-49 70.4-52.9 22.2-108.3 26.8-164.8 19.5-61.1-8.4-104.6-40.9-128.7-97.2-11.1-25.9-17.7-52.9-17.7-79.7-1.8-57.4-4.6-115.7 3.6-173.2 5.5-37 18.6-71.3 44.5-100.1 30.6-34.3 71.3-48.1 115.7-49.9 29.7-0.9 59.2 1.8 89 2.7v-8.4c0-38.8 0-87.1 0-126.9 0-4.6 0-9.3 0.9-12.9 1.8-14.8 9.3-22.2 25-23.1 16.6-0.9 32.4-0.9 49-0.9 26.8 0 35.2 8.4 35.2 35.2 0 2.7 0 5.5 0 8.4 0 163.9 0 336.1 0 500.2-1.8 12.7-2.7 23.9-2.7 35.9v0zM263.7 339.9c0-29.7-3.6-34.3-33.4-37-19.5-1.8-38.8-1.8-57.4 0.9-29.7 4.6-48.1 26.8-49.9 56.5-0.9 17.7-0.9 34.3-0.9 51.9 0 44.5 0 89.9 0.9 134.3 0.9 36.1 25 59.2 60.2 60.2 19.5 0.9 38.8-0.9 57.4-3.6 17.7-2.7 22.2-8.4 22.2-26.8 0-40.8 0-82.4 0-123.2v0c0.9-37.4 0.9-75.3 0.9-113.2v0zM1436.1 510.3c0 56.5 0 113 0 169.5 0 9.3-3.6 13.9-12 15.7-4.6 0.9-9.3 1.8-13.9 1.8-12.9 0-25 0-37.9 0-32.4 0-38.8-6.6-38.8-38.8 0-92.6 0-185.2 0-277.8 0-12-0.9-24.1-3.6-36.1-4.6-23.1-19.5-37.9-43.6-42.7-25.9-4.6-49.9 3.6-62.9 23.1-11.1 16.6-12 36.1-12 55.6 0 91.7 0 184.3 0 276 0 3.6 0 8.4-0.9 12-2.7 20.4-10.2 26.8-30.6 27.7-15.7 0-30.6 0-46.3 0-24.1 0-32.4-8.4-32.4-32.4 0-89.9 0-180.6 0.9-270.5 0-31.5 4.6-62.9 15.7-92.6 12.9-37.9 37-67.6 74-83.3 43.6-19.5 89-19.5 135.2-9.3 64.9 14.8 107.4 71.3 110.3 141.6-0.3 53.8-1.2 107.6-1.2 160.5v0zM567.4 660.3c0 5.5-0.9 11.1-1.8 17.7-1.8 9.3-7.5 16.6-17.7 17.7-24.1 0.9-48.1 0.9-72.2 0-9.3 0-15.7-8.4-17.7-17.7-0.9-5.5-1.8-11.1-1.8-17.7 0-137.1 0-283.4 0-421.4 0-5.5 0.9-11.1 1.8-17.7 1.8-10.2 8.4-17.7 17.7-17.7 24.1-0.9 47.2-0.9 71.3 0 9.3 0 15.7 7.5 17.7 17.7 0.9 5.5 1.8 12 1.8 18.6 0 68.5 0 145.5 0 214 0.9 68.5 0.9 138 0.9 206.5v0zM549 853.9c-23.1 12-48.1 11.1-71.3 0-5.5-2.7-10.2-7.5-13.9-12-15.7-19.5-14.8-60.2 0-80.6 15.7-22.2 56.5-24.1 79.7-14.8 25 10.2 31.5 32.4 31.5 52.9-1 23.8-5.8 44.3-26 54.5v0z" />
<glyph unicode="&#xe617;" glyph-name="chain" horiz-adv-x="1448" d="M663.802 536.329c5.676-1.376 12.557-1.376 18.233-1.376 4.128 0 8.429 0 12.557 0 16.857 1.376 16.857 4.128 16.857 20.986v67.258l1.376 297.412c-1.376 11.181-5.676 16.857-16.857 16.857s-23.91 0-35.091 0c-20.986 0-25.286-7.053-25.286-25.286v-343.684c0.172-16.685 11.353-29.242 28.21-32.167zM906.514 417.123c-4.128 26.662-9.805 51.948-29.414 71.558-11.181 12.557-37.843 25.286-51.948 25.286v-218.802c0-7.053 1.376-19.61 1.376-25.286-2.752-18.233-23.91-33.715-50.572-36.467-14.105-1.376-35.091 1.376-49.024 2.752-12.557 1.376-15.481 5.676-15.481 18.233v175.454c-20.986-1.376-35.091-2.752-51.948-1.376-9.805 0-19.61 1.376-26.662 4.128v-201.945c0-23.91 14.105-42.143 37.843-50.572 37.843-15.481 85.491-19.61 126.258-14.105 43.52 5.676 82.739 29.414 99.596 70.182 8.429 18.233 12.557 37.843 12.557 57.453 0.172 40.767 2.924 81.535-2.58 123.506zM749.293 248.894c4.128 0 8.429 0 14.105 0s12.557 0 18.233 1.376c16.857 2.752 26.662 15.481 26.662 32.339v458.59c0 25.286-9.805 43.52-32.339 54.7-11.181 5.676-29.414 8.429-44.896 8.429v-534.448c1.376-15.481 2.924-18.233 18.233-20.986zM732.436 144.997v-151.544c0-19.61 5.676-25.286 25.286-25.286 11.181 0 23.91 0 35.091 0s16.857 5.676 18.233 16.857v164.101c-5.676-1.376-9.805-2.752-15.481-2.752-19.61-2.752-39.219-2.752-63.129-1.376zM711.45 448.086v71.558c-7.053-1.376-7.053-1.376-12.557-1.376-14.105-1.376-29.414-1.376-43.52 1.376-20.986 2.752-44.896 19.61-44.896 40.595v238.412c-28.038-11.181-44.896-30.791-57.453-61.753-7.053-19.61-11.181-37.843-11.181-58.829-1.376-40.595-2.752-82.739 2.752-124.882 4.128-26.662 14.105-51.948 32.339-71.558 22.362-23.91 50.572-35.091 82.739-36.467 16.685 0 29.414 1.376 51.776 2.924z" />
<glyph unicode="&#xe618;" glyph-name="twitter-solid" d="M997.069 738.748c-6.417 7.066-16.998 8.943-25.532 4.54-5.257-2.765-15.326-6.383-27.273-9.865 14.985 20.002 27.068 42.325 32.461 62.396 2.253 8.67-1.058 17.783-8.397 23.006-7.339 5.12-17.135 5.12-24.542 0-11.537-8.124-67.413-32.324-102.673-40.209-79.189 69.427-173.193 76.698-269.005 20.753-78.507-45.875-95.539-138.854-92.194-195.618-179.302 17.271-290.918 112.094-353.792 190.566-4.437 5.495-11.674 8.431-18.091 7.885-7.031-0.512-13.38-4.369-16.896-10.377-29.764-50.142-37.922-105.574-23.689-160.358 7.817-29.798 21.333-56.183 37.103-77.517-7.578 3.618-14.848 8.397-21.709 13.926-6.417 5.154-15.155 6.281-22.63 2.697-7.441-3.55-12.117-10.991-12.117-19.217 0-97.69 61.508-158.276 115.302-189.679-9.557 0.99-19.354 3.209-29.082 6.144-8.055 2.458-16.759 0.205-22.221-6.144-5.598-6.383-6.929-14.95-3.447-22.596 30.788-68.198 89.225-114.483 161.587-131.55-62.498-36.796-145.783-54.238-225.178-45.124-10.069 1.263-19.524-2.389-22.699-12.117-3.106-9.626 0.956-10.923 9.83-15.94 105.131-59.051 211.456-74.923 316.006-74.923h0.102c156.57 0 303.104 53.453 412.57 176.128 102.775 114.995 156.638 249.617 145.783 382.839 27.068 20.070 67.55 55.945 92.74 95.539 5.154 8.124 4.13 17.681-2.321 24.815z" />
<glyph unicode="&#xe619;" glyph-name="facebook-solid" d="M697.207 789.333h46.831c34.133 0 34.133 22.323 34.133 34.133v102.4c0 11.776 0 34.133-34.133 34.133h-95.915c-126.157 0-245.419-100.727-245.419-215.415v-160.051h-136.533c-34.133 0-34.133-22.357-34.133-34.133v-136.533c0-11.81 0-34.133 34.133-34.133h136.533v-412.945c0-21.402 0-30.788 34.133-30.788h102.4c34.133 0 34.133 12.732 34.133 34.133v409.6h148.105c9.489 0 17.954 14.746 20.617 23.859l49.084 140.766c1.877 6.451 0.683 19.831-3.447 25.156-4.028 5.325-10.377 14.985-16.998 14.985h-197.325v123.324c-0.034 38.502 77.278 81.51 123.802 81.51z" />
<glyph unicode="&#xe61a;" glyph-name="mail-solid" d="M1024 733.867c0 58.914-47.718 106.667-106.667 106.667h-810.667c-58.914 0-106.667-47.718-106.667-106.667v-571.733c0-58.948 47.753-106.667 106.667-106.667h810.667c58.948 0 106.667 47.718 106.667 106.667v571.733zM899.482 206.677c-4.267-4.642-10.001-6.929-15.735-6.929-5.12 0-10.342 1.877-14.404 5.53l-218.317 199.339-16.452-17.954c-30.276-32.87-70.69-50.961-113.971-50.961-43.247 0-83.695 18.091-113.903 50.927l-16.452 17.988-218.249-199.339c-4.096-3.652-9.25-5.53-14.37-5.53-5.769 0-11.537 2.287-15.735 6.929-7.885 8.738-7.339 22.153 1.365 30.14l218.249 199.27-219.648 240.060c-7.885 8.704-7.339 22.221 1.365 30.14 8.67 7.953 22.221 7.339 30.174-1.365l264.806-289.519c43.964-47.787 120.934-47.787 164.966 0.034l264.294 289.143c7.919 8.738 21.47 9.318 30.174 1.365 8.67-7.953 9.25-21.436 1.365-30.174l-219.136-239.65 218.317-199.236c8.533-8.021 9.182-21.47 1.297-30.208z" />
<glyph unicode="&#xe61b;" glyph-name="notifications" d="M512-54.5c55.3 0 100.5 45.2 100.5 100.5h-201c0-55.3 45.2-100.5 100.5-100.5v0zM838.6 247v276.4c0 154.3-107 283.4-251.2 317.6v34.1c0 41.7-33.7 75.4-75.4 75.4s-75.4-33.7-75.4-75.4v-34.2c-144.2-34.2-251.2-163.3-251.2-317.6v-276.3l-100.5-100.5v-50.2h854.2v50.2l-100.5 100.5z" />
<glyph unicode="&#xe61c;" glyph-name="sharethis-solid" d="M789.333 341.333c-39.014 0-76.254-11.947-108.749-34.679l-254.43 140.151c0.239 2.697 0.41 5.427 0.41 8.158 0 1.502-0.068 2.97-0.171 4.403l251.017 131.959c33.075-24.098 71.407-36.762 111.718-36.762 105.95 0 192 86.084 192 192 0 105.882-86.050 192-192 192s-192-86.118-192-192c0-1.536 0.068-2.97 0.171-4.437l-251.017-131.891c-32.905 24.132-71.236 36.83-111.616 36.83-105.882 0-192-86.118-192-192s86.118-192 192-192c39.014 0 76.254 11.947 108.715 34.679l254.362-140.186c-0.239-2.731-0.41-5.461-0.41-8.158 0-105.916 86.118-192 192-192s192 86.084 192 192-86.118 191.932-192 191.932z" />
<glyph unicode="&#xe61d;" glyph-name="pie-chart" d="M522.5-37.1c-274.1 0-497.1 222.5-497.1 495.8 0 261.6 212.1 483.5 472.7 494.8 4.7 0.2 9.4-1.5 12.8-4.8s5.4-7.8 5.4-12.6v-435.6l320.6 318.3c6.6 6.6 17.4 6.7 24.1 0.3 101-95.2 156.6-223.2 156.6-360.4 0.2-273.4-222-495.8-495.1-495.8v0zM481.5 917.6c-233.9-19.8-421.3-221.9-421.3-458.9 0-254.2 207.4-461 462.3-461 253.9 0 460.4 206.8 460.4 461 0 122-47.3 236.1-133.7 323.3l-338-335.6c-5-5-12.5-6.5-19-3.7-6.5 2.7-10.7 9-10.7 16v458.9zM568.5 633.7c-2.2 0-4.5 0.4-6.6 1.3-6.5 2.7-10.8 9-10.8 16.1v281.8c0 5.1 2.2 9.8 6 13.1 3.7 3.3 8.8 4.9 13.8 4.2 75.2-10.2 152.9-39 212.8-79 4.3-2.9 7.1-7.6 7.7-12.8 0.5-5.1-1.3-10.3-5-14l-205.6-205.5c-3.4-3.4-7.7-5.2-12.3-5.2v0zM585.9 912.6v-219.4l160.4 160.4c-47.3 28-103.9 48.8-160.4 59z" />
<glyph unicode="&#xe61e;" glyph-name="information-solid" d="M505.5 587.9c26.1 0 47.2 21.2 47.2 47.2s-21.1 47.2-47.2 47.2c-26 0-47.2-21.2-47.2-47.2 0-26.1 21.2-47.2 47.2-47.2zM463.3 452.7h102.4v-238.9h-102.4v238.9zM512 955.7c-279.9 0-507.7-227.7-507.7-507.7 0-279.9 227.8-507.7 507.7-507.7 280 0 507.7 227.8 507.7 507.7 0 280-227.7 507.7-507.7 507.7zM505.5 716.3c44.9 0 81.3-36.5 81.3-81.3s-36.5-81.3-81.3-81.3v0c-44.8 0-81.3 36.5-81.3 81.3s36.5 81.3 81.3 81.3zM599.8 196.7c0-9.4-7.6-17.1-17.1-17.1h-136.5c-9.4 0-17.1 7.7-17.1 17.1v273.1c0 9.4 7.6 17.1 17.1 17.1h136.5c9.4 0 17.1-7.6 17.1-17.1v-273.1z" />
<glyph unicode="&#xe61f;" glyph-name="left" d="M994-26.1h-592.7c-10.9 0-19.7 8.8-19.8 19.7l-1.1 233c-0.1 10.9 8.7 19.8 19.7 19.9 0 0 0.1 0 0.1 0 10.9 0 19.7-8.8 19.8-19.7l1-213.3h553.3v869.1h-553.3v-210.3c0-10.9-8.8-19.8-19.8-19.8-10.9 0-19.8 8.8-19.8 19.8v230c0 10.9 8.8 19.8 19.8 19.8h592.8c10.9 0 19.8-8.8 19.8-19.8v-908.8c-0.1-10.8-8.9-19.6-19.8-19.6zM577.5 166.4c-10.9 0-19.8 8.8-19.8 19.8 0 135.9-114.5 164.5-210.6 164.5h-11.7v-109.7c0-7.6-4.4-14.5-11.2-17.8-6.9-3.3-15-2.3-20.9 2.5l-285.7 230.6c-4.6 3.7-7.3 9.3-7.4 15.2 0 5.9 2.6 11.5 7.1 15.3l285.7 238.2c5.9 4.9 14.1 6 21 2.7 6.9-3.2 11.4-10.2 11.4-17.9v-129.3h11.7c154.3 0 250.1-81.9 250.1-213.8v-180.6c0.1-10.9-8.7-19.7-19.7-19.7zM61.2 471.9l234.8-189.5v88c0 10.9 8.8 19.8 19.8 19.8h31.5c97.5 0 169.5-28 210.6-79.5v56.2c0 109.1-78.7 174.3-210.6 174.3h-31.5c-10.9 0-19.8 8.8-19.8 19.8v106.7l-234.8-195.8z" />
<glyph unicode="&#xe620;" glyph-name="pantheon" horiz-adv-x="1126" d="M1057.9 90.6v68.3h-34.1v443.7h27.1c0.2 0 0.5 0 0.7 0v0c9.5 0 17.1 7.6 17.1 17.1 0 7.3-4.5 13.5-10.9 15.9l-486.7 315.7c-5.6 3.7-12.9 3.7-18.6 0l-489.2-317.4c-6.3-4.1-9.2-11.9-7.1-19.1s8.8-12.2 16.3-12.2h29.6v-443.7h-34v-68.3h-68.3v-136.6h1126.4v136.6h-68.3zM989.7 158.8h-102.4v443.8h102.4v-443.8zM272.9 602.6h68.3v-443.7h-68.3v443.7zM375.3 602.6h102.4v-443.7h-102.4v443.7zM511.8 602.6h102.4v-443.7h-102.4v443.7zM648.3 602.6h102.4v-443.7h-102.4v443.7zM784.9 602.6h68.3v-443.7h-68.3v443.7zM561.7 916.6l431.5-279.9h-863l431.5 279.9zM136.3 602.6h102.4v-443.7h-102.4v443.7zM102.2 124.7h921.6v-34.1h-921.6v34.1zM1092.1-11.8h-1058.2v68.3h1058.1v-68.3z" />
<glyph unicode="&#xe621;" glyph-name="student-hat" d="M994.1 619.7c-0.7 16.5-13.2 30.1-29.5 32.3l-469.3 64c-1.6 0.2-3.1 0.3-4.6 0.3v0c-1.7 0-3.4-0.1-5.1-0.4l-426.7-64c-16.1-2.4-28.3-15.9-29-32.1-0.8-16.2 10-30.8 25.8-34.7l128.4-32.1c-2.8-3-4.6-7.1-4.6-11.6v-264.5c0-4.4 1.7-8.7 4.7-11.8 60.3-62.9 195.8-85.3 302.5-85.3v0c106.7 0 242.1 22.4 302.5 85.2 3 3.1 4.7 7.4 4.7 11.8v264.6c0 1.4-0.2 2.7-0.5 3.9l30 6.8 72.9-8.8v-240.9c0-9.4 7.7-17.1 17.1-17.1s17.1 7.7 17 17.1v256c0 6.9-4.2 13-10.2 15.7l47.4 10.8c16.1 3.7 27.2 18.4 26.5 34.8zM759.8 284c-46.4-42.7-152.2-70.1-273.1-70.1s-226.7 27.3-273.1 70.1v257.4c0 1.5-0.2 3-0.6 4.3l269.3-67.3c2.7-0.7 5.5-1 8.3-1 2.5 0 5.1 0.3 7.6 0.9l261.6 59.4v-253.7zM821.8 586.8l-329.2 39.9c-9.4 1-17.9-5.6-19-15s5.6-17.9 14.9-19l234.4-28.4-232.3-52.8-426.6 106.7 426.7 64 469.3-64-138.2-31.4z" />
<glyph unicode="&#xe622;" glyph-name="financial" d="M937.2 344.8c-24.8 0-51.8-22.2-86-50.1-32.5-26.5-71.7-58.6-102.2-61.1-0.1 17.4-5.6 32.3-16.3 44.6-34.7 39.9-113 37.2-164.9 35.2-8.3-0.3-15.5-0.6-21.3-0.6-11.7 0-25.9 9.1-45.5 21.7-42.2 27.2-105.6 67.8-230 71.5v51.4c0 9.4-7.6 17.1-17.1 17.1h-239c-9.4 0-17.1-7.6-17.1-17.1v-375.5c0-9.4 7.6-17.1 17.1-17.1h238.9c9.4 0 17.1 7.7 17.1 17.1v45.5c22.3-6.6 55.4-22.2 90-38.6 72.5-34.2 162.6-76.8 234.9-76.8v0c125.1 0 430.4 158.1 430.5 241 0 58.4-32.5 91.8-89.1 91.8zM236.8 98.9h-204.8c0 0 0 341.3 0 341.3h204.8v-341.3zM595.8 46.2c-64.6 0-151 40.8-220.4 73.6-42.7 20.2-78.3 37-104.5 42.8v209.2c114.2-3.4 170.3-39.5 211.6-66 23.6-15.1 42.2-27.1 64-27.1 6.1 0 13.8 0.3 22.5 0.6 39.8 1.4 114 4.2 137.9-23.5 4.8-5.5 7.3-12.2 7.8-20.4h-273.1c-9.4 0-17.1-7.7-17.1-17.1s7.6-17.1 17.1-17.1h287.2c48-11.5 98.9 30.1 143.9 67 23.2 18.9 51.8 42.4 64.4 42.4 37.4 0 54.9-18.3 54.9-57.6 0.1-52.7-275.6-206.8-396.2-206.8zM672 747.5h119.5c32.8 0 59.7 26.8 59.7 59.7v17.1c0 32.9-26.8 59.7-59.7 59.7h-119.5c-32.9 0-59.7-26.8-59.7-59.7v-17.1c0-33 26.8-59.7 59.7-59.7zM646.4 824.3c0 14.1 11.5 25.6 25.6 25.6h119.5c14.1 0 25.6-11.5 25.6-25.6v-17.1c0-14.1-11.5-25.6-25.6-25.6h-119.5c-14.1 0-25.6 11.5-25.6 25.6v17.1zM467.2 576.8h119.5c32.8 0 59.7 26.8 59.7 59.7v17.1c0 32.9-26.8 59.7-59.7 59.7h-119.5c-32.9 0-59.7-26.8-59.7-59.7v-17.1c0-32.9 26.8-59.7 59.7-59.7zM441.6 653.6c0 14.1 11.5 25.6 25.6 25.6h119.5c14.1 0 25.6-11.5 25.6-25.6v-17.1c0-14.1-11.5-25.6-25.6-25.6h-119.5c-14.1 0-25.6 11.5-25.6 25.6v17.1zM672 542.7c-32.9 0-59.7-26.8-59.7-59.7v-17.1c0-32.9 26.8-59.7 59.7-59.7h119.5c32.8 0 59.7 26.8 59.7 59.7v17.1c0 32.9-26.8 59.7-59.7 59.7h-119.5zM817.1 482.9v-17.1c0-14.1-11.5-25.6-25.6-25.6h-119.5c-14.1 0-25.6 11.5-25.6 25.6v17.1c0 14.1 11.5 25.6 25.6 25.6v0h119.5c14.1 0 25.6-11.5 25.6-25.6z" />
<glyph unicode="&#xe623;" glyph-name="plane" d="M781.722-64c-1.809 0-3.584 0.273-5.325 0.785l-247.501 82.534-247.501-82.534c-5.188-1.638-10.82-0.785-15.223 2.355-4.369 3.277-7.031 8.26-7.031 13.722v40.107c0 4.437 1.741 8.704 4.881 11.913l163.669 165.683v225.28l-384.205-80.213c-4.949-1.024-10.138 0.239-14.063 3.447-3.959 3.277-6.246 7.987-6.246 13.073v84.343c0 6.315 3.516 12.083 9.148 14.95l395.401 204.22v223.232c0 55.774 45.397 101.137 101.137 101.137 55.774 0 101.137-45.363 101.137-101.137v-223.676l362.257-204.083c5.257-2.97 8.533-8.533 8.533-14.711v-84.343c0-5.052-2.287-9.933-6.383-13.21-3.959-3.209-9.284-4.403-14.302-3.277l-350.208 79.667v-224.802l163.601-165.683c3.209-3.243 4.983-7.475 4.983-11.947v-40.141c0-5.393-2.594-10.547-6.997-13.619-2.833-1.946-6.246-3.072-9.762-3.072zM528.896 53.999c1.809 0 3.55-0.273 5.359-0.853l230.639-76.868v9.83l-163.703 165.649c-3.14 3.277-4.881 7.475-4.881 11.981v252.826c0 5.052 2.253 9.933 6.383 13.21 3.959 3.174 9.216 4.369 14.234 3.243l350.242-79.633v53.316l-362.223 204.083c-5.325 2.97-8.602 8.567-8.602 14.711v233.335c0 37.171-30.242 67.447-67.413 67.447s-67.447-30.276-67.447-67.447v-233.506c0-6.281-3.516-12.083-9.148-14.95l-395.401-204.254v-53.35l384.239 80.043c4.915 1.058 10.138-0.239 14.063-3.413 3.959-3.311 6.246-7.953 6.246-13.107v-252.826c0-4.437-1.741-8.704-4.881-11.981l-163.669-165.683v-9.796l230.639 76.834c1.707 0.887 3.55 1.161 5.325 1.161z" />
<glyph unicode="&#xe624;" glyph-name="car" d="M978.1 547l-14.8 6.4c16 8.3 30 17.2 41.8 26.5 7.4 5.9 8.7 16.6 2.8 24s-16.6 8.7-24 2.8c-16-12.7-37.1-24.5-62.4-35.2l-5.2 2.2-79.5 174.4c-17.2 37.4-55.1 61.6-96.2 61.6h-441.2c-41 0-78.6-24-96-61.1l-82.2-175.9-2-0.7c-25.7 11-47 23.2-63 36.3-7.3 6-18 4.9-24-2.4s-4.9-18.1 2.4-24c11.1-9.1 24.3-17.7 39.3-25.9l-17.1-6c-27.4-10.5-56.8-38.1-56.8-73.7v-121c0-61.4 47.6-104.3 102.4-119.6v-47c0-56.4 45.9-102.4 102.4-102.4v0c56.4 0 102.4 45.9 102.4 102.4v40.8h443.7v-40.8c0-56.4 45.9-102.4 102.4-102.4 56.4 0 102.4 45.9 102.4 102.4v54.6c41.7 20.3 68.3 61.3 68.3 112.1v119c0 32.7-17.7 60.6-45.9 72.6zM234.3 734.2c11.8 25.1 37.3 41.4 65.1 41.4v0l441.2 0.1c28 0 53.5-16.4 65.2-41.7l80.2-175.9c-92.9-31.5-225.1-50.6-364.9-50.6-142.1 0-275.6 19.6-368.5 51.7l81.7 175zM273.1 188.7c0-37.7-30.6-68.3-68.3-68.3-37.6 0-68.3 30.6-68.3 68.3v41.2c3.4-0.2 6.8-0.3 10.2-0.3h126.3v-40.9zM921.6 188.7c0-37.7-30.6-68.3-68.3-68.3s-68.3 30.6-68.3 68.3v40.8h108.4c9.7 0 19.1 0.9 28.1 2.6v-43.4zM989.8 355.4c0-54.1-39.7-91.8-96.4-91.8h-746.6c-54.4 0-112.6 36.9-112.6 91.7v121c0 18.4 18 35.3 34.4 41.7l49.7 17.5c97.7-38.9 243.6-62.2 402.8-62.2v0c157.3 0 302.3 23 400.2 61.2l43.3-18.8c15.6-6.6 25.3-22.4 25.3-41.2v-119.1zM176.2 444.4c-32.9 0-59.7-26.8-59.7-59.7s26.8-59.7 59.7-59.7c32.9 0 59.7 26.9 59.7 59.7 0 32.9-26.8 59.7-59.7 59.7zM176.2 359.1c-14.1 0-25.6 11.5-25.6 25.6s11.5 25.6 25.6 25.6c14.1 0 25.6-11.5 25.6-25.6s-11.5-25.6-25.6-25.6zM858.8 444.4c-32.9 0-59.7-26.8-59.7-59.7s26.8-59.7 59.7-59.7v0c32.9 0 59.7 26.9 59.7 59.7 0 32.9-26.8 59.7-59.7 59.7zM858.8 359.1c-14.1 0-25.6 11.5-25.6 25.6s11.5 25.6 25.6 25.6 25.6-11.5 25.6-25.6-11.5-25.6-25.6-25.6zM853.3 86.3v0 0zM682.7 366h-341.4c-9.4 0-17.1-7.7-17.1-17.1 0-9.3 7.6-17.1 17.1-17.1h341.3c9.4 0 17.1 7.7 17.1 17.1s-7.6 17.1-17 17.1zM264.2 667.1v0c4 0 8.1 1.4 11.3 4.3l46.2 41c7.1 6.2 7.7 17 1.5 24.1-6.3 7.1-17 7.7-24.1 1.5l-46.2-40.9c-7.1-6.2-7.7-17-1.5-24.1 3.4-4 8-5.9 12.8-5.9zM264.2 585.3v0 0zM382.2 737.5l-129.7-122.7c-6.9-6.5-7.2-17.3-0.7-24.1 3.3-3.6 7.8-5.4 12.4-5.4 4.2 0 8.4 1.6 11.7 4.7l129.8 122.6c6.9 6.5 7.2 17.3 0.7 24.1-6.5 6.9-17.3 7.2-24.2 0.8z" />
<glyph unicode="&#xe625;" glyph-name="receipt-2" d="M1024 72.5c0 0 0 0 0 0v750.9c0 0 0 0 0 0 0 69-67.6 136.6-136.5 136.6 0 0 0 0 0 0h-751c-0.1 0-0.1 0-0.2 0s-0.1 0-0.2 0c-68.7 0-136.1-67.6-136.1-136.5v0 0-750.9c0 0 0 0 0 0s0 0 0 0c0-69 67.6-136.6 136.5-136.6v0c0 0 0 0 0 0h750.9c0 0 0 0 0 0 69 0 136.6 67.6 136.6 136.5zM887.5-29.9h-751c0 0 0 0 0 0-49.8 0-102.4 52.6-102.4 102.4 0 0 0 0 0 0s0 0 0 0v751c0 0 0 0 0 0 0 49.8 52.4 102.4 102 102.4 0.1 0 0.1 0 0.2 0s0.1 0 0.2 0h750.9c49.8 0 102.4-52.6 102.4-102.4v0 0-750.9c0 0 0 0 0 0 0.1-49.8-52.6-102.5-102.3-102.5zM136.5 755.2h750.9c9.4 0 17.1 7.6 17.1 17.1s-7.7 17.1-17.1 17.1h-750.9c-9.4 0-17.1-7.6-17.1-17.1s7.7-17.1 17.1-17.1zM443.7 618.7h-307.2c-9.4 0-17.1-7.6-17.1-17.1 0-9.4 7.6-17.1 17.1-17.1h307.2c9.4 0 17.1 7.6 17.1 17.1 0 9.4-7.6 17.1-17.1 17.1zM887.5 618.7h-273.1c-9.4 0-17.1-7.6-17.1-17.1 0-9.4 7.7-17.1 17.1-17.1h273.1c9.4 0 17.1 7.6 17.1 17.1-0.1 9.4-7.7 17.1-17.1 17.1zM443.7 448h-307.2c-9.4 0-17.1-7.6-17.1-17.1 0-9.4 7.6-17.1 17.1-17.1h307.2c9.4 0 17.1 7.7 17.1 17.1 0 9.5-7.6 17.1-17.1 17.1zM887.5 448h-273.1c-9.4 0-17.1-7.6-17.1-17.1 0-9.4 7.7-17.1 17.1-17.1h273.1c9.4 0 17.1 7.7 17.1 17.1-0.1 9.5-7.7 17.1-17.1 17.1zM443.7 277.3h-307.2c-9.4 0-17.1-7.7-17.1-17.1s7.6-17.1 17.1-17.1h307.2c9.4 0 17.1 7.7 17.1 17.1s-7.6 17.1-17.1 17.1zM887.5 277.3h-273.1c-9.4 0-17.1-7.7-17.1-17.1s7.7-17.1 17.1-17.1h273.1c9.4 0 17.1 7.7 17.1 17.1s-7.7 17.1-17.1 17.1z" />
<glyph unicode="&#xe626;" glyph-name="shopping-bag" d="M1018.9-41.6l-213.3 648.6c-2.3 7-8.9 11.7-16.2 11.7h-80.7v174.9c0 101.1-68.9 166.4-175.4 166.4h-42.7c-111 0-191.6-70-191.6-166.4v-174.9h-64.3c-7.4 0-14-4.7-16.2-11.7l-213.3-648.6c-1.7-5.2-0.9-10.9 2.4-15.3 3.2-4.5 8.4-7.1 13.8-7.1h981.3c5.5 0 10.6 2.6 14 7.1 3 4.4 4 10.2 2.2 15.3zM333.2 793.6c0 90.9 81.6 132.3 157.5 132.3h42.7c87.1 0 141.2-50.7 141.2-132.3v-174.9h-341.4v174.9zM44.9-29.9l202.1 614.4h52v-102.4c0-9.4 7.7-17.1 17.1-17.1s17.1 7.6 17.1 17.1v102.4h341.4v-102.4c0-9.4 7.7-17.1 17.1-17.1s17.1 7.6 17.1 17.1v102.4h68.3l202.1-614.4h-934.3zM691.6 465.1v0 0z" />
<glyph unicode="&#xe627;" glyph-name="management" d="M1024 550.4c0 0 0 0 0 0v187.7c0 9.4-7.7 17.1-17.1 17.1h-278.9c-8.3 58.6-59.1 102.4-122.5 102.4h-170.7c-65.9 0-116.6-43.2-123.1-102.4h-294.6c-9.4 0-17.1-7.6-17.1-17.1v-682.7c0-9.4 7.6-17.1 17.1-17.1h989.9c9.4 0 17.1 7.7 17.1 17.1v479.5c0 0 0 0.1 0 0.1v15.4zM434.8 823.5h170.7c45 0 80.1-28.4 87.9-68.3h-347.2c6.2 40.2 41.5 68.3 88.6 68.3zM712.1 721.1v0c0 0 0 0 0 0h277.7v-186.2c0-70.1-52.9-121-125.7-121h-688c-68.3 0-142 46.3-142 121.1v15.5c0 0 0 0 0 0 0 66.2 0 170.6 0 170.6h678zM989.9 72.5h-955.8c0 0 0 188.9 0 370.3 34.3-40.3 89.5-63.1 142-63.1h688c52.1 0 96.9 21.8 125.7 57.1v-364.3zM520.2 435.2v0 0zM520.2 435.2c32.9 0 59.7 26.8 59.7 59.7s-26.8 59.7-59.7 59.7c-32.9 0-59.7-26.8-59.7-59.7s26.7-59.7 59.7-59.7zM520.2 520.5c14.1 0 25.6-11.5 25.6-25.6s-11.5-25.6-25.6-25.6c-14.1 0-25.6 11.5-25.6 25.6 0 14.2 11.4 25.6 25.6 25.6z" />
<glyph unicode="&#xe628;" glyph-name="first-aid" d="M1006.9 721.1h-277.7c-0.6 64.7-53.3 136.5-123.7 136.5h-213.3c-70.4 0-123.2-71.8-123.7-136.5h-251.4c-9.5 0-17.1-7.7-17.1-17.1v-648.5c0-9.4 7.6-17.1 17.1-17.1h989.9c9.4 0 17.1 7.7 17.1 17.1v648.5c-0.1 9.4-7.8 17.1-17.2 17.1zM392.2 823.5h213.3c50.1 0 89-54.8 89.6-102.4h-392.5c0.6 47.6 39.5 102.4 89.6 102.4zM989.9 72.5h-955.8v614.4h955.7v-614.4zM290.1 277.3h119.5v-119.5c0-9.4 7.6-17.1 17.1-17.1h170.7c9.4 0 17.1 7.7 17.1 17.1v119.5h119.5c9.4 0 17.1 7.7 17.1 17.1v170.7c0 9.4-7.7 17.1-17.1 17.1h-119.6v119.4c0 9.4-7.7 17.1-17.1 17.1h-170.6c-9.4 0-17.1-7.6-17.1-17.1v-119.5h-119.5c-9.4 0-17.1-7.6-17.1-17.1v-170.7c0.1-9.3 7.7-17 17.1-17zM307.2 448h119.5c9.4 0 17.1 7.6 17.1 17.1v119.4h136.5v-119.5c0-9.4 7.7-17.1 17.1-17.1h119.5v-136.5h-119.6c-9.4 0-17.1-7.7-17.1-17.1v-119.5h-136.5v119.6c0 9.4-7.6 17.1-17.1 17.1h-119.4v136.5z" />
<glyph unicode="&#xe629;" glyph-name="money" horiz-adv-x="1195" d="M994.1 637.1c-73.9 8.9-145.4 13.2-218.7 13.2-101 0-190.9-8.3-277.8-16.3-86.1-7.9-167.4-15.5-258-15.5-67.4 0-132.6 4.2-199.1 13-4.7 0.6-9.4-0.8-13-3.9-3.6-3.2-5.6-7.6-5.6-12.4v-493.4c0-8.3 6.1-15.3 14.3-16.3 67.9-8.9 134.3-13.3 203.1-13.3v0c92.2 0 178.1 7.9 261 15.6 86.2 8 175.3 16.2 274.8 16.2 71.9 0 142.3-4.2 214.9-13 4.7-0.6 9.5 0.9 13 4s5.5 7.5 5.5 12.3v493.5c0 8.3-6.2 15.3-14.4 16.3zM975.8 145.8c-67.5 7.5-133.3 11.1-200.5 11.1-101.1 0-190.9-8.3-277.9-16.3-86.1-8-167.4-15.5-258.1-15.5-62.5 0-122.9 3.7-184.5 11.2v0 460.3c61.5-7.4 122.2-11 184.8-11 92.2 0 178 8 261.1 15.6 86.2 8 175.3 16.2 274.8 16.2 67.1 0 132.8-3.7 200.3-11.3v-460.3zM1060.1 710c-181.8 23.9-327.4 9.7-468.2-4.1-142.3-13.9-289.3-28.3-477.5-4.5-8.9 1-17.2-5.3-18.4-14.3-1.1-9.1 5.3-17.3 14.3-18.4 191.9-24.1 340.8-9.6 484.8 4.4 141.5 13.8 275.2 26.9 446.4 6v-485.3c0-9 7.4-16.4 16.4-16.4v0c9 0 16.4 7.4 16.4 16.5v499.8c0.1 8.2-6 15.2-14.2 16.3zM1158.7 791.6c-200.2 24.1-344.9 7.5-484.9-8.5-141.1-16.2-274.4-31.5-460.6-8-8.9 0.9-17.3-5.3-18.4-14.3s5.3-17.3 14.3-18.4c190.1-23.9 331.6-7.7 468.5 8 134.6 15.5 273.7 31.4 462.7 10.2v-500.9c0-9 7.4-16.4 16.4-16.4v0c9 0 16.4 7.4 16.4 16.4v515.5c0 8.3-6.1 15.4-14.4 16.4zM241 207.3c-41.7 0-82.4 1.6-124.4 5.1-9.1 0.6-17-6.1-17.7-15.1-0.7-9.1 6-17 15.1-17.7 42.9-3.5 84.5-5.2 127-5.2v0c9.1 0 16.4 7.3 16.4 16.4s-7.3 16.5-16.4 16.5zM754.2 551.6c0-9 7.4-16.4 16.4-16.4 42.1 0 82.7-1.6 124.5-5 0.5 0 0.9 0 1.3 0v0c8.5 0 15.6 6.5 16.3 15.1 0.7 9.1-6.1 17-15 17.7-42.7 3.4-84.1 5.1-127.1 5.1-9 0-16.4-7.4-16.4-16.5zM501.8 398.1l-15 7.5c-27.7 13.7-30.3 16.1-30.3 28.5 0 21.4 23.4 23.1 30.5 23.1 9 0 29.9-2.2 29.9-23.1 0-9 7.4-16.4 16.4-16.4s16.4 7.4 16.4 16.4c0 28.3-18.1 48.8-46.4 54.5 0 0.5 0.1 0.9 0.1 1.4v32.9c0 9.1-7.4 16.4-16.4 16.4s-16.4-7.4-16.4-16.4v-32.9c0-0.5 0-1 0.1-1.5-28.4-5.7-47.1-26.5-47.1-54.4 0-34 21.5-44.6 48.6-58l15-7.5c27.8-13.7 30.3-16 30.3-28.4 0-20.6-21.4-22.7-30.6-22.7s-30.5 2.2-30.5 22.7c0 9-7.4 16.4-16.4 16.4s-16.4-7.5-16.4-16.4c0-28.2 18.3-48.5 47-54.1v-26.4c0-9 7.4-16.4 16.4-16.4 9.1 0 16.4 7.4 16.4 16.4v26.4c28.6 5.6 47 25.9 47 54.1 0.1 33.9-21.4 44.6-48.6 57.9z" />
<glyph unicode="&#xe62a;" glyph-name="business-man" d="M741.2 199.6h-54.5l-60.7 97.1c58.5 50.6 97.5 131.9 101.9 208.2 23.7 7.1 40.1 29.4 40.1 57.3v85.3c0 35.5-11.4 56-68.3 59.3v68.7c0 114.2-57.6 177.1-162.1 177.1-67.2 0-133.2-25.6-148.7-32.1-76-1.9-132.9-63.6-132.9-145v-76c-12.7-8.9-34.1-27.6-34.1-52v-85.3c0-26.5 20.7-50.3 47.2-57.5 5.1-79.3 50.4-166.1 116.1-216.2l-61.7-89h-55.1c-136 0-217.2-71.8-217.2-192v-46.9c0-9.4 7.6-17.1 17.1-17.1v0c9.4 0 17.1 7.6 17.1 17.1v46.9c0 100.3 66.7 157.9 183.1 157.9h53.3l80.6-165.4c2.4-5 7.1-8.5 12.5-9.3 1-0.2 1.9-0.3 2.8-0.3v0c4.5 0 8.8 1.8 12 5l73.2 73.2 73.3-73.3c3.2-3.2 7.6-5 12.1-5v0c0.9 0 1.7 0.1 2.7 0.2 5.4 0.9 10 4.3 12.5 9.1l84.1 165.6h53.5c95.5 0 197.5-41.5 197.5-157.9v-46.9c0-9.4 7.7-17.1 17.1-17.1v0c9.4 0 17.1 7.6 17 17.2v46.9c0 116.8-90.8 192.2-231.5 192.2zM302.7 519.5c0 9.4-7.7 17.1-17.1 17.1-15.3 0-29.7 12.5-29.7 25.6v85.3c0 8.7 14.7 21.7 25.4 27.8 5.4 3 8.7 8.7 8.7 14.9v85.3c0 64.3 43.1 110.9 102.4 110.9 2.4 0 4.7 0.5 6.9 1.5 0.6 0.3 70 30.5 138.2 30.5v0c86 0 128-46.8 128-143v-85.3c0-9.4 7.6-17.1 17.1-17.1 51.2 0 51.2-7.5 51.2-25.6v-85.3c0-12.3-7.1-25.6-22.5-25.6-9.4 0-17.1-7.6-17.1-17.1 0-108.2-86.3-238.9-193.3-238.9-109.7 0-198.2 130.8-198.2 239zM501 246.4v0c35.2 0 68.2 11.1 97.5 29.8l54.4-87.1-149.8-77-145.7 76.5 56.3 81.2c27-14.8 56.4-23.4 87.3-23.4zM422.6 36.5l-52 106.7 104-54.7-52-52zM583.8 36.2l-52.1 52.1 106.5 54.7-54.4-106.8z" />
<glyph unicode="&#xe62b;" glyph-name="plates" horiz-adv-x="1428" d="M677.696 880.466c233.631 0 422.524-188.893 422.524-422.524s-188.893-422.524-422.524-422.524c-233.631 0-422.524 188.893-422.524 422.524 0 231.974 188.893 422.524 422.524 422.524zM677.696 913.605c-251.858 0-455.663-203.806-455.663-455.663s203.806-455.663 455.663-455.663c251.858 0 455.663 203.806 455.663 455.663 0 250.201-203.806 455.663-455.663 455.663v0zM677.696 728.026c149.126 0 270.084-120.958 270.084-270.084s-120.958-270.084-270.084-270.084c-149.126 0-270.084 120.958-270.084 270.084s120.958 270.084 270.084 270.084zM677.696 761.165c-167.353 0-303.223-135.871-303.223-303.223s135.871-303.223 303.223-303.223c167.353 0 303.223 135.871 303.223 303.223s-135.871 303.223-303.223 303.223v0zM1290.77-65.657c-34.796 0-69.592 26.511-69.592 74.563v528.57c-23.197 3.314-44.738 14.913-61.307 31.482s-24.854 34.796-24.854 54.68v299.909c0 19.883 19.883 36.453 44.738 36.453 0 0 0 0 0 0 26.511 0 44.738-16.57 44.738-38.11v-203.806h14.913v205.463c0 21.54 19.883 36.453 44.738 36.453 0 0 0 0 0 0 24.854 0 43.081-16.57 43.081-36.453v-205.463h13.256v205.463c0 21.54 18.227 36.453 44.738 36.453 0 0 0 0 0 0 24.854 0 44.738-14.913 44.738-36.453v-303.223c0-34.796-26.511-72.906-67.935-82.848v-526.913c0-51.366-36.453-76.22-71.249-76.22 0 0 0 0 0 0zM1179.754 925.204c-4.971 0-8.285-1.657-9.942-3.314v-298.252c0-11.599 4.971-21.54 13.256-31.482 13.256-13.256 34.796-23.197 54.68-23.197h16.57v-560.052c0-28.168 18.227-41.424 34.796-41.424 0 0 0 0 0 0 18.227 0 34.796 13.256 34.796 41.424v561.709h16.57c28.168 0 49.709 26.511 49.709 49.709v303.223c0 0-3.314 1.657-8.285 3.314-4.971 0-9.942-1.657-9.942-3.314v-238.602h-82.848v238.602c0 0-3.314 1.657-8.285 1.657s-8.285-1.657-9.942-1.657v-238.602h-84.505v236.945c0 1.657-1.657 1.657-3.314 1.657 1.657 1.657 0 1.657-3.314 1.657zM125.929-64c-11.599 0-24.854 3.314-36.453 9.942-21.54 13.256-34.796 36.453-34.796 64.621v316.479h-54.68v526.913c0 41.424 18.227 74.563 49.709 92.79 29.825 18.227 67.935 18.227 97.761 0 31.482-18.227 49.709-51.366 49.709-92.79v-843.392c0-28.168-11.599-51.366-34.796-64.621-11.599-6.628-23.197-9.942-36.453-9.942zM34.796 361.838h56.337v-352.932c0-19.883 9.942-29.825 16.57-33.139 11.599-6.628 24.854-6.628 36.453 0s16.57 18.227 16.57 34.796v843.392c0 28.168-11.599 51.366-31.482 62.964-18.227 9.942-43.081 9.942-62.964 0-19.883-11.599-31.482-34.796-31.482-62.964v-492.117z" />
<glyph unicode="&#xe62c;" glyph-name="flag" d="M162.1-25.7h-34.1v955.8c0 9.4-7.6 17.1-17.1 17.1-9.4 0-17.1-7.6-17.1-17.1v-955.7h-68.2c-9.4 0-17.1-7.7-17.1-17.1s7.7-17.1 17.1-17.1h136.5c9.4 0 17.1 7.7 17.1 17.1s-7.6 17-17.1 17zM1008.5 911.1c-4.4 3.2-10.2 4.1-15.3 2.4-54.8-17.7-108.4-26.4-163.9-26.4-76.6 0-146.1 16-219.7 33-76.4 17.6-155.3 35.7-245 35.7-63.6 0-125.9-9.1-190.2-27.8-7.3-2.1-12.3-8.8-12.3-16.4v-469.4c0-5.4 2.5-10.4 6.8-13.6s9.9-4.2 15-2.7c61.2 17.9 120.2 26.5 180.7 26.5 85.8 0 162.8-17.7 237.3-34.9 72.3-16.6 147-33.8 227.3-33.8 59.2 0 116.2 9.2 174.4 28 7 2.3 11.8 8.9 11.8 16.3v469.3c0.1 5.4-2.5 10.5-6.9 13.8zM981.4 440.5c-50.6-15.2-100.5-22.7-152.1-22.7-76.5 0-146.1 16-219.6 33-76.4 17.6-155.3 35.7-245 35.7-56.5 0-111.8-7.2-168.4-21.9v434c56.8 15.5 112.1 23 168.4 23 85.9 0 162.8-17.7 237.4-34.8 72.1-16.6 146.9-33.8 227.2-33.8 51.6 0 101.6 7 152.1 21.3v-433.8zM364.7 486.5v0 0zM829.3 383.7v0 0z" />
<glyph unicode="&#xe62d;" glyph-name="pie-chart-2" d="M512 960c-282.8 0-512-229.2-512-512s229.2-512 512-512c282.8 0 512 229.2 512 512s-229.2 512-512 512zM512 925.9c180.7 0 338.2-100.8 419.4-249-0.1-0.1-0.2-0.1-0.4-0.2l-419-209.5-419 209.5c-0.1 0.1-0.3 0.1-0.4 0.2 81.2 148.2 238.8 249 419.4 249zM34.1 448c0 70.7 15.4 137.9 43.1 198.3 0.2-0.1 0.3-0.2 0.5-0.3l411.4-205.7-205.7-411.3c-0.1-0.2-0.1-0.3-0.2-0.5-148.3 81.2-249.1 238.8-249.1 419.5zM512-29.9c-70.7 0-137.8 15.4-198.3 43.1 0.1 0.1 0.2 0.3 0.2 0.4l210.7 421.6 421.6 210.8c0.2 0.1 0.3 0.2 0.5 0.3 27.7-60.5 43.1-127.6 43.1-198.4 0.1-263.4-214.3-477.8-477.8-477.8z" />
<glyph unicode="&#xe62e;" glyph-name="line-chart" d="M1024 72.5h-887.5v887.5h-34.1c0 0 0-682.4 0-887.5h-102.4v-34.1h102.4c0-18.4 0-102.4 0-102.4h34.1v102.4h887.5v34.1zM220.6 93.9v0c4.4 0 8.7 1.7 12.2 5l158.6 158.6 115.9-115.9c4.4-4.4 10.8-6.1 16.8-4.3 5.9 1.7 10.5 6.5 11.9 12.6l121.1 524.7 148.9-149.1c4.1-4.1 10-5.8 15.7-4.6s10.3 5.3 12.3 10.7l128 341.3c3.3 8.8-1.1 18.7-10 22-8.8 3.3-18.7-1.2-22-10l-118.8-316.5-151.9 151.9c-4.4 4.4-10.8 6-16.8 4.3s-10.6-6.5-12-12.6l-121-524.7-106.2 106.3c-6.7 6.6-17.5 6.6-24.1 0l-170.7-170.6c-6.7-6.7-6.7-17.5 0-24.1 3.4-3.4 7.7-5 12.1-5z" />
<glyph unicode="&#xe62f;" glyph-name="bar-chart-2" d="M17.067-29.867h989.867v-34.133h-989.867v34.133zM136.533 38.4h-68.267c-9.421 0-17.067 7.68-17.067 17.067v204.8c0 9.387 7.646 17.067 17.067 17.067h68.267c9.421 0 17.067-7.68 17.067-17.067v-204.8c0-9.387-7.646-17.067-17.067-17.067zM85.333 72.533h34.133v170.667h-34.133v-170.667zM546.133 38.4h-68.267c-9.421 0-17.067 7.68-17.067 17.067v546.133c0 9.421 7.646 17.067 17.067 17.067h68.267c9.387 0 17.067-7.646 17.067-17.067v-546.133c0-9.387-7.68-17.067-17.067-17.067zM494.933 72.533h34.133v512h-34.133v-512zM750.933 38.4h-68.267c-9.387 0-17.067 7.68-17.067 17.067v887.467c0 9.421 7.68 17.067 17.067 17.067h68.267c9.387 0 17.067-7.646 17.067-17.067v-887.467c0-9.387-7.68-17.067-17.067-17.067zM699.733 72.533h34.133v853.333h-34.133v-853.333zM955.733 38.4h-68.267c-9.387 0-17.067 7.68-17.067 17.067v750.933c0 9.421 7.68 17.067 17.067 17.067h68.267c9.387 0 17.067-7.646 17.067-17.067v-750.933c0-9.387-7.68-17.067-17.067-17.067zM904.533 72.533h34.133v716.8h-34.133v-716.8zM341.333 38.4h-68.267c-9.421 0-17.067 7.68-17.067 17.067v614.4c0 9.421 7.646 17.067 17.067 17.067h68.267c9.421 0 17.067-7.646 17.067-17.067v-614.4c0-9.387-7.646-17.067-17.067-17.067zM290.133 72.533h34.133v580.267h-34.133v-580.267z" />
<glyph unicode="&#xe630;" glyph-name="file-download" d="M843.1 104.3l-75.1-44.6v217.6c0 9.4-7.7 17.1-17.1 17.1s-17.1-7.7-17.1-17.1v-223.9l-85.4 50.8c-8.2 4.8-18.6 2.1-23.5-5.9-4.7-8.2-2.1-18.6 5.9-23.4l106-63.1c2.7-1.6 5.7-2.3 8.7-2.3 3.1 0 6 0.8 8.9 2.3l106 63.1c8.1 4.8 10.8 15.4 5.9 23.4-4.7 8.1-15.2 10.8-23.2 6zM887.5 960h-525.2c-4.7 0-9.2-1.9-12.4-5.3l-225.8-238.2c-3-3.2-4.7-7.4-4.7-11.7v-751.7c0-9.4 7.6-17.1 17.1-17.1h426.7c9.4 0 17.1 7.7 17.1 17.1s-7.7 17.1-17.1 17.1h-409.6v716.7c0 0 0 0 0 0h221.9c9.4 0 17.1 7.6 17.1 17.1v221.9h477.9v-614.4c0-9.4 7.7-17.1 17.1-17.1s17.1 7.7 17.1 17.1v631.4c-0.2 9.5-7.8 17.1-17.2 17.1zM175.5 721.1l182.9 192.9v-193h-182.9z" />
<glyph unicode="&#xe631;" glyph-name="das" d="M843.093 707.413h-648.533c-10.24 0-17.067 6.827-17.067 17.067v102.4c0 10.24 6.827 17.067 17.067 17.067h648.533c10.24 0 17.067-6.827 17.067-17.067v-102.4c0-10.24-8.533-17.067-17.067-17.067zM211.627 741.547h614.4v68.267h-614.4v-68.267zM826.027 596.48h-614.4c-10.24 0-17.067 6.827-17.067 17.067s6.827 17.067 17.067 17.067h614.4c10.24 0 17.067-6.827 17.067-17.067s-8.533-17.067-17.067-17.067zM267.947-50.347c-34.133 0-63.147 17.067-80.213 44.373-18.773-27.307-51.2-44.373-85.333-44.373-56.32 0-102.4 46.080-102.4 100.693l-1.707 759.467c0 68.267 68.267 136.533 136.533 136.533l750.933-1.707c68.267 0 136.533-66.56 136.533-134.827v-238.933l1.707-515.413c0-56.32-44.373-102.4-98.987-102.4-34.133 0-64.853 18.773-81.92 44.373-18.773-27.307-47.787-44.373-81.92-44.373s-64.853 18.773-81.92 44.373c-18.773-27.307-47.787-46.080-81.92-46.080s-64.853 17.067-81.92 44.373c-18.773-27.307-47.787-46.080-81.92-46.080s-63.147 17.067-81.92 44.373c-20.48-25.6-49.493-44.373-83.627-44.373zM206.507 53.76c0-40.96 25.6-68.267 61.44-68.267 34.133 0 61.44 29.013 61.44 68.267 0 10.24 6.827 17.067 17.067 17.067s17.067-6.827 17.067-17.067c0-37.547 29.013-68.267 64.853-68.267s64.853 30.72 64.853 68.267c0 10.24 6.827 17.067 17.067 17.067s17.067-6.827 17.067-17.067c0-37.547 29.013-68.267 64.853-68.267s64.853 30.72 64.853 68.267c0 10.24 6.827 17.067 17.067 17.067s17.067-6.827 17.067-17.067c0-37.547 29.013-68.267 64.853-68.267s64.853 30.72 64.853 68.267c0 10.24 6.827 17.067 17.067 17.067s17.067-6.827 17.067-17.067c0-37.547 29.013-68.267 64.853-68.267s64.853 30.72 64.853 68.267l3.413 756.053c0 49.493-52.907 100.693-102.4 100.693l-750.933 1.707c-49.493 0-102.4-52.907-102.4-102.4v-102.4l1.707-655.36c0-37.547 30.72-66.56 68.267-66.56s69.973 32.427 69.973 68.267c0 10.24 6.827 17.067 17.067 17.067s17.067-8.533 17.067-17.067zM177.493 212.48v269.653h97.28c32.427 0 58.027-10.24 80.213-30.72s32.427-47.787 32.427-80.213v-47.787c0-32.427-10.24-59.733-32.427-80.213s-47.787-30.72-80.213-30.72h-97.28zM240.64 432.64v-172.373h30.72c17.067 0 29.013 5.12 39.253 17.067 8.533 11.947 13.653 27.307 13.653 46.080v49.493c0 18.773-5.12 34.133-13.653 44.373-10.24 11.947-22.187 17.067-39.253 17.067h-30.72zM554.667 263.68h-85.333l-15.36-52.907h-61.44l87.040 271.36h66.56l87.040-269.653h-63.147l-15.36 51.2zM482.987 313.173h58.027l-29.013 97.28-29.013-97.28zM786.773 282.453c0 10.24-3.413 17.067-10.24 22.187s-17.067 10.24-34.133 17.067c-34.133 10.24-59.733 22.187-75.093 34.133-17.067 11.947-23.893 30.72-23.893 52.907s10.24 40.96 29.013 54.613c18.773 13.653 44.373 20.48 75.093 20.48s54.613-8.533 73.387-23.893c18.773-15.36 29.013-35.84 27.307-59.733v-1.707h-61.44c0 10.24-3.413 18.773-10.24 25.6s-17.067 10.24-30.72 10.24c-11.947 0-22.187-3.413-29.013-8.533s-10.24-11.947-10.24-20.48c0-8.533 3.413-13.653 10.24-18.773s20.48-10.24 40.96-17.067c30.72-8.533 52.907-20.48 69.973-34.133 15.36-13.653 23.893-32.427 23.893-54.613 0-23.893-8.533-42.667-27.307-56.32s-42.667-20.48-73.387-20.48c-30.72 0-56.32 8.533-80.213 23.893-22.187 15.36-32.427 37.547-32.427 66.56v1.707h61.44c0-15.36 3.413-27.307 11.947-34.133s20.48-10.24 37.547-10.24c13.653 0 22.187 3.413 29.013 8.533 5.12 8.533 8.533 15.36 8.533 22.187z" />
<glyph unicode="&#xe632;" glyph-name="file-pictures" d="M887.5 960h-525.2c-4.7 0-9.2-1.9-12.4-5.3l-225.8-238.2c-3-3.2-4.7-7.4-4.7-11.7v-751.7c0-9.4 7.6-17.1 17.1-17.1h750.9c9.4 0 17.1 7.7 17.1 17.1v989.8c0 9.5-7.6 17.1-17 17.1zM358.4 914v-193h-182.9l182.9 193zM870.4-29.9h-716.8v716.8h221.9c9.4 0 17.1 7.6 17.1 17.1v221.9h477.9v-955.8zM273.1 584.5c-9.4 0-17.1-7.6-17.1-17.1v-477.9c0-9.4 7.6-17.1 17.1-17.1h477.9c9.4 0 17.1 7.7 17.1 17.1v478c0 9.4-7.7 17.1-17.1 17.1h-477.9zM733.9 550.4v-375.5h-443.8c0 0 0 0 0 0v375.5h443.8zM290.1 106.7v34.1c0 0 0 0 0 0h443.7v-34.1h-443.7zM375.6 243.2h261.4c0.2 0 0.5 0 0.7 0v0c9.4 0 17.1 7.7 17.2 17 0 4.5-1.8 8.5-4.6 11.6l-67.4 130c-2.6 5-7.5 8.4-13.1 9.1-5.6 0.8-11.2-1.4-14.9-5.6l-61-69-40.5 18.2c-6.8 3.1-14.7 1.4-19.7-4.1l-70.7-78.7c-4.5-5-5.6-12.2-2.9-18.4 2.7-6.1 8.8-10.1 15.5-10.1zM450.7 318.3l40.6-18.2c6.8-3.1 14.8-1.4 19.8 4.3l52.8 59.7 45-86.7h-195l36.8 40.9zM429 371.2v0c32.9 0 59.7 26.8 59.7 59.7s-26.8 59.7-59.7 59.7c-32.9 0-59.7-26.8-59.7-59.7s26.7-59.7 59.7-59.7zM429 456.5c14.1 0 25.6-11.5 25.6-25.6s-11.5-25.6-25.6-25.6c-14.1 0-25.6 11.5-25.6 25.6s11.4 25.6 25.6 25.6z" />
<glyph unicode="&#xe633;" glyph-name="magnifi-glass" d="M384 320c-141.653 0-257.707 114.347-257.707 256s114.347 256 257.707 256c141.653 0 257.707-114.347 257.707-256s-116.053-256-257.707-256zM384 946.347c-204.8 0-372.053-165.547-372.053-370.347s165.547-370.347 372.053-370.347c92.16 0 175.787 34.133 242.347 88.747l15.36-15.36v-44.373l285.013-285.013 85.333 85.333-285.013 285.013h-46.080l-15.36 15.36c56.32 64.853 90.453 148.48 90.453 240.64 0 204.8-167.253 370.347-372.053 370.347z" />
<glyph unicode="&#xe634;" glyph-name="close" d="M592.8 448l404.1 404c22.3 22.3 22.3 58.5 0 80.8s-58.5 22.3-80.8 0l-404.1-404-404.1 404c-22.3 22.3-58.5 22.3-80.8 0s-22.3-58.5 0-80.8l404.1-404-404.1-404c-22.3-22.3-22.3-58.5 0-80.8 11.2-11.2 25.8-16.7 40.4-16.7s29.2 5.6 40.4 16.7l404.1 404 404.1-404c11.2-11.2 25.8-16.7 40.4-16.7s29.2 5.6 40.4 16.7c22.3 22.3 22.3 58.5 0 80.8l-404.1 404z" />
<glyph unicode="&#xe635;" glyph-name="eye-visible" d="M168.96 448c0 100.693 46.080 191.147 117.76 252.587-114.347-46.080-213.333-128-281.6-235.52-6.827-10.24-6.827-23.893 0-34.133 68.267-107.52 167.253-189.44 281.6-235.52-71.68 61.44-117.76 151.893-117.76 252.587zM512 717.653c-151.893 0-276.48-121.173-276.48-269.653s124.587-269.653 276.48-269.653c151.893 0 276.48 121.173 276.48 269.653s-124.587 269.653-276.48 269.653zM568.32 446.293c-32.427 0-58.027 25.6-58.027 56.32s25.6 56.32 58.027 56.32c32.427 0 58.027-25.6 58.027-56.32s-25.6-56.32-58.027-56.32zM1018.88 465.067c-68.267 107.52-167.253 189.44-281.6 235.52 71.68-61.44 117.76-151.893 117.76-252.587s-46.080-191.147-117.76-252.587c114.347 46.080 213.333 126.293 281.6 235.52 6.827 10.24 6.827 23.893 0 34.133z" />
<glyph unicode="&#xe636;" glyph-name="inbox-out" d="M1024 299.7c0 0.2 0 0.4 0 0.6 0 0.3-0.1 0.6-0.1 1 0 0.3-0.1 0.5-0.1 0.8-0.1 0.3-0.1 0.5-0.2 0.8s-0.1 0.6-0.2 0.9c-0.1 0.2-0.1 0.4-0.2 0.6-0.1 0.3-0.2 0.6-0.3 0.9l-124.3 307.1c-2.6 6.5-8.8 10.7-15.8 10.7h-268.4c-9.4 0-17.1-7.6-17.1-17.1 0-9.4 7.7-17.1 17.1-17.1h256.9l110.3-273.1h-227.4c-7.5 0-14.2-4.9-16.3-12.2l-15-50.6c-12.7-39.2-57.1-73.7-95.2-73.7h-215.1c-38.1 0-82.5 34.4-94.9 73.2l-15 51c-2.2 7.3-8.8 12.3-16.4 12.3h-242.5l124.6 273h207c9.4 0 17.1 7.6 17.1 17.1 0 9.4-7.6 17.1-17.1 17.1h-218c-6.7 0-12.7-3.9-15.5-10l-136.3-298.6c-0.6-1.4-1.1-2.9-1.3-4.3-2.7-3-4.3-7-4.3-11.3v-341.3c0-9.4 7.6-17.1 17.1-17.1h989.9c9.4 0 17.1 7.7 17.1 17v341.4c-0.1 0.3-0.1 0.6-0.1 0.9zM989.9-25.5h-955.8v307.2h239.4l11.5-39.1c17.2-53.8 74.4-97.4 127.5-97.4h215.1c53.1 0 110.5 43.6 127.8 97.7l11.4 38.8h223v-307.2zM494.9 367.1v0c9.4 0 17.1 7.7 17.1 17v264.5c0 81.3 69.2 145.1 157.5 145.1h5.8l-99.8-98.2c-6.7-6.6-6.8-17.4-0.3-24.1 3.3-3.4 7.7-5.1 12.2-5.1v0c4.3 0 8.6 1.6 12 4.9l129.5 127.5c3.2 3.2 5 7.6 5 12.3 0 4.6-1.8 9-5.2 12.2l-131.7 127.6c-6.8 6.6-17.7 6.4-24.1-0.4-6.6-6.8-6.4-17.6 0.4-24.1l101.6-98.4h-5.3c-107.4 0-191.6-78.7-191.6-179.2v-264.5c-0.1-9.4 7.5-17.1 16.9-17.1z" />
<glyph unicode="&#xe800;" glyph-name="shop" d="M1023.1 649.8l-102.8 298.7c-2.4 6.9-8.9 11.5-16.2 11.5h-769.3c-7 0-13.3-4.3-15.9-10.8l-117.7-298.7c-0.8-2-1.2-4.1-1.2-6.3v-21.3c0-54.5 40.8-102.4 87.3-102.4 5.1 0 10.2 0.4 15.1 1.1v-568.6c0-9.4 7.6-17.1 17.1-17.1h819.2c9.4 0 17.1 7.7 17.1 17.1v569.9c41.6 9.6 68.3 47.4 68.3 100v21.3c-0.1 2-0.4 3.9-1 5.6zM409.6-29.9h-136.5c0 0 0 0 0 0v239h136.5v-239c0 0 0 0 0 0zM785.1-29.9h-136.6c0 0 0 0 0 0v239h136.5l0.1-239c0 0 0 0 0 0zM819.2-29.9c0 0 0 0 0 0v256c0 9.4-7.7 17.1-17.1 17.1h-170.6c-9.4 0-17.1-7.7-17.1-17.1v-256c0 0 0 0 0 0h-170.7c0 0 0 0 0 0v256c0 9.4-7.6 17.1-17.1 17.1h-170.6c-9.4 0-17.1-7.7-17.1-17.1v-256c0 0 0 0 0 0h-102.4v562.7c15.6 8.2 29 20.2 38.8 34.5 18.5-28.2 50.8-46.8 87.3-46.8 35.9 0 67.5 18.3 86 46 18.4-27.7 50-46 85.8-46 35.7 0 67.1 18.2 85.5 45.9 18.4-27.6 49.8-45.9 85.4-45.9s67 18.3 85.3 45.9c18.4-27.6 49.8-45.9 85.4-45.9 34.2 0 64.6 16.9 83.2 42.7 13.5-23.1 35.3-38.3 62.3-41.9v-551.2h-102.3zM989.9 622.9c0-33-14.6-68.3-55.7-68.3s-55.7 35.3-55.7 68.3v0c0 9.4-7.6 17-17.1 17-9.3 0-17.1-7.6-17.1-17.1 0-37.6-30.6-68.3-68.3-68.3s-68.3 30.6-68.3 68.3c0 9.4-7.7 17.1-17.1 17.1s-17.1-7.6-17.1-17.1c0-37.6-30.7-68.3-68.3-68.3s-68.2 30.7-68.2 68.4c0 9.4-7.6 17.1-17.1 17.1s-17.1-7.6-17.1-17.1c0-37.6-30.7-68.3-68.5-68.3-37.9 0-68.7 30.6-68.7 68.3 0 9.4-7.6 17.1-17.1 17.1-9.4 0-17.1-7.6-17.1-17.1 0-37.6-31-68.3-69-68.3-37.8 0-69.8 31.3-69.8 68.3 0 9.4-7.6 17.1-17.1 17.1-9.4 0-17.1-7.6-17.1-17.1 0-37-32.7-68.3-71.4-68.3-25.1 0-53.1 29.2-53.1 68.3v18.1l112.5 284.8h745.6l97.9-284.4v-18.5zM768 448h-477.9c-9.4 0-17.1-7.6-17.1-17.1v-102.4c0-9.4 7.6-17.1 17.1-17.1h477.9c9.4 0 17.1 7.7 17.1 17.1v102.4c0 9.5-7.7 17.1-17.1 17.1zM750.9 345.6h-443.7v68.3h443.7v-68.3z" />
<glyph unicode="&#xe900;" glyph-name="credit-card" d="M857.6 806.4h-691.2c-91.8 0-166.4-74.6-166.4-166.4v-384c0-91.8 74.6-166.4 166.4-166.4h691.2c91.8 0 166.4 74.7 166.4 166.4v384c0 91.8-74.7 166.4-166.4 166.4zM166.4 772.3h691.2c62.7 0 115.3-43.8 128.9-102.4h-949c13.6 58.6 66.2 102.4 128.9 102.4zM857.6 123.7h-691.2c-72.9 0-132.3 59.3-132.3 132.3v311.5h955.7v-311.5c0.1-72.9-59.3-132.3-132.2-132.3zM136.5 430.9h170.7v-34.1h-170.7v34.1zM136.5 362.7h341.3v-34.1h-341.3v34.1z" />
<glyph unicode="&#xe901;" glyph-name="upload" d="M700.143 477.082c-4.062 0-8.124 1.434-11.401 4.369l-188.553 169.711-188.621-169.711c-7.031-6.315-17.783-5.734-24.098 1.263-6.315 7.031-5.734 17.783 1.263 24.098l199.987 179.985c6.451 5.871 16.35 5.871 22.835 0l199.987-179.985c6.963-6.315 7.612-17.067 1.229-24.098-3.311-3.755-7.987-5.632-12.629-5.632zM494.933-38.4c-9.421 0-17.067 7.68-17.067 17.067v682.667c0 9.421 7.646 17.067 17.067 17.067s17.067-7.646 17.067-17.067v-682.667c0-9.387-7.646-17.067-17.067-17.067zM1006.933 251.733h-358.4c-9.387 0-17.067 7.68-17.067 17.067s7.68 17.067 17.067 17.067h341.333v614.4h-955.733v-614.4h307.2c9.421 0 17.067-7.68 17.067-17.067s-7.646-17.067-17.067-17.067h-324.267c-9.421 0-17.067 7.68-17.067 17.067v648.533c0 9.421 7.646 17.067 17.067 17.067h989.867c9.387 0 17.067-7.646 17.067-17.067v-648.533c0-9.387-7.68-17.067-17.067-17.067z" />
<glyph unicode="&#xe902;" glyph-name="coins" d="M794.8 630.6c-8.7 3.5-18.6-0.7-22.2-9.5-3.5-8.7 0.7-18.7 9.4-22.2 123.7-49.7 203.5-167.6 203.5-300.3 0-178.8-145.5-324.3-324.3-324.3-132.7 0-250.6 79.9-300.3 203.5-3.5 8.7-13.4 13-22.2 9.5-8.7-3.5-13-13.4-9.5-22.2 54.9-136.6 185.2-224.9 332-224.9v0c197.6 0 358.4 160.8 358.4 358.4 0.1 146.8-88.1 277.1-224.8 332zM774.4 508.4c77.7-42 125.9-122.3 125.9-209.7 0-131.8-107.2-238.9-238.9-238.9-87.4 0-167.8 48.2-209.7 125.9-4.5 8.3-14.8 11.4-23.1 6.9s-11.4-14.8-6.9-23.1c47.9-88.6 139.8-143.7 239.8-143.7v0c150.6 0 273.1 122.5 273.1 273.1 0 100-55.1 191.9-143.7 239.8-8.3 4.5-18.7 1.4-23.2-6.9s-1.5-18.9 6.7-23.4zM678.4 618.7c0 185.9-151.2 337.1-337.1 337.1s-337-151.3-337-337.1 151.2-337.1 337.1-337.1 337 151.2 337 337.1zM38.4 618.7c0 167 135.9 302.9 302.9 302.9v0c167 0 302.9-135.9 302.9-302.9s-135.8-303-302.8-303-303 135.9-303 303zM571.8 618.7c0 127-103.4 230.4-230.4 230.4s-230.4-103.4-230.4-230.4 103.4-230.4 230.4-230.4c127 0 230.4 103.3 230.4 230.4zM145.1 618.7c0 108.2 88.1 196.3 196.3 196.3v0c108.2 0 196.3-88.1 196.3-196.3s-88.1-196.3-196.3-196.3-196.3 88.1-196.3 196.3zM358.4 490.7v14.5c33.5 5.3 55 28.2 55 60.3 0 37.6-24 49.4-54.3 64.4l-17.1 8.5c-30.6 15.1-35 18.2-35 33.6 0 25.6 27.6 27.6 36.1 27.6 10.6 0 35.4-2.7 35.4-27.6 0-9.4 7.6-17.1 17.1-17.1 9.4 0 17.1 7.6 17.1 17.1 0 32.2-21.3 55.2-54.3 60.6v14.1c0 9.4-7.6 17.1-17.1 17.1-9.4 0-17.1-7.6-17.1-17.1v-14.8c-31-6.5-51.4-29.3-51.4-59.9 0-37.6 23.9-49.4 54.1-64.3l17.1-8.5c30.9-15.2 35.3-18.4 35.3-33.8 0-24.6-25.3-27.3-36.2-27.3s-36.1 2.7-36.1 27.3c0 9.4-7.6 17.1-17.1 17.1-9.4 0-17.1-7.7-17.1-17.1 0-31 20-53.3 51.4-59.6v-15.1c0-9.4 7.6-17.1 17.1-17.1s17.1 7.6 17.1 17.1z" />
<glyph unicode="&#xe903;" glyph-name="check" d="M512 911.8c255.8 0 463.8-208.1 463.8-463.8 0-255.8-208.1-463.8-463.8-463.8-255.8 0-463.8 208-463.8 463.8s208 463.8 463.8 463.8zM512 954c-279.4 0-506-226.6-506-506s226.5-506 506-506 506 226.6 506 506-226.5 506-506 506v0zM449.9 261.9c-8.2 0-16.1 3.2-21.9 9.1l-124.1 124.1c-12.1 12.1-12.1 31.7 0 43.9 12.1 12.1 31.7 12.1 43.9 0l99.6-99.6 226.6 283.2c10.7 13.4 30.2 15.5 43.6 4.8s15.6-30.2 4.8-43.6l-248.2-310.3c-5.5-6.9-13.7-11.1-22.5-11.6-0.6 0-1.2 0-1.8 0z" />
<glyph unicode="&#xe904;" glyph-name="nfe" d="M1006.9 823.5h-989.8c-9.4 0-17.1-7.6-17.1-17.1v-525.7c0-4.1 1.5-8.1 4.2-11.2l166-191.1c3.2-3.7 7.9-5.9 12.9-5.9h823.8c9.4 0 17.1 7.7 17.1 17.1v716.8c0 9.4-7.7 17.1-17.1 17.1zM42.6 277.3h128.1v-147.4l-128.1 147.4zM989.9 106.7h-785.1c0 0 0 0 0 0v187.7c0 9.4-7.6 17.1-17.1 17.1h-153.6v477.8h955.7v-682.6zM170.7 618.7h716.8c9.4 0 17.1 7.6 17.1 17.1 0 9.4-7.7 17.1-17.1 17.1h-716.8c-9.4 0-17.1-7.6-17.1-17.1s7.6-17.1 17.1-17.1zM170.7 482.1h546.1c9.4 0 17.1 7.6 17.1 17.1 0 9.4-7.7 17.1-17.1 17.1h-546.1c-9.4 0-17.1-7.6-17.1-17.1 0-9.4 7.6-17.1 17.1-17.1z" />
<glyph unicode="&#xe905;" glyph-name="certificado" horiz-adv-x="1336" d="M489.7 704.9v-205.6c0-101.8 79.9-184.7 178.1-184.7s178.1 82.9 178.1 184.7v205.5c-71.8-1-130 18.7-177.5 57.9-41.5-40.1-72.6-61-178.7-57.8v0zM667.8 270c-122.8 0-222.6 102.9-222.6 229.2v228.7c0 6.1 2.5 11.9 6.9 16.1 4.4 4.3 10.2 6.7 16.4 6.2 117-5.5 135.7 11.4 178.2 53.6l5.5 5.4c8.7 8.5 22.6 8.5 31.3 0 45.9-45.2 105-64.4 183.2-59 6.2 0.4 12.2-1.7 16.7-5.9 4.5-4.3 7.1-10.2 7.1-16.4v-228.7c-0.1-126.3-100-229.2-222.7-229.2v0zM1313.4 158.6h-66.8v690.1c0 69.7-47 111.3-125.8 111.3h-924.8c-72 0-107-36.4-107-111.3v-690.1h-66.7c-12.4 0-22.3-9.9-22.3-22.3v-65c0-73.3 65-135.3 142.1-135.3h1053.9c75.6 0 139.6 62 139.6 135.3v65c0.1 12.4-9.9 22.3-22.2 22.3zM133.6 848.7c0 50.6 15.1 66.8 62.4 66.8h924.8c53.9 0 81.3-22.4 81.3-66.8v-690.1h-1068.5v690.1zM1291.1 71.3c0-49.2-43.6-90.8-95.1-90.8h-1053.9c-52 0-97.6 42.4-97.6 90.8v42.8h1246.6v-42.8z" />
<glyph unicode="&#xe906;" glyph-name="senhaweb" d="M194.2-28.7h-176.5c-9.8 0-17.7-7.9-17.7-17.7 0-9.7 7.9-17.7 17.7-17.7h176.6c9.7 0 17.7 7.9 17.7 17.7-0.1 9.9-8.1 17.7-17.8 17.7zM40.8 73c3.4-3.4 7.9-5.2 12.5-5.2 4.5 0 9 1.7 12.5 5.2l49.9 49.9 49.9-49.9c3.4-3.4 7.9-5.2 12.5-5.2 4.5 0 9 1.7 12.5 5.2 6.9 6.9 6.9 18.1 0 25l-49.9 49.9 49.9 49.9c6.9 6.9 6.9 18.1 0 25s-18.1 6.9-25 0l-49.9-49.9-49.9 49.9c-6.9 6.9-18.1 6.9-25 0s-6.9-18.1 0-25l49.9-49.9-49.9-49.9c-6.9-7-6.9-18.1 0-25zM476.7-28.7h-176.6c-9.8 0-17.7-7.9-17.7-17.7 0-9.7 7.9-17.7 17.7-17.7h176.6c9.7 0 17.7 7.9 17.7 17.7-0.1 9.9-8 17.7-17.7 17.7zM305.7 73c3.4-3.4 7.9-5.2 12.5-5.2 4.5 0 9 1.7 12.5 5.2l49.9 49.9 49.9-49.9c3.4-3.4 7.9-5.2 12.5-5.2 4.5 0 9 1.7 12.5 5.2 6.9 6.9 6.9 18.1 0 25l-49.9 49.9 49.9 49.9c6.9 6.9 6.9 18.1 0 25s-18.1 6.9-25 0l-49.9-49.9-49.9 49.9c-6.9 6.9-18.1 6.9-25 0s-6.9-18.1 0-25l49.9-49.9-49.9-49.9c-6.9-7-6.9-18.1 0-25zM723.9-28.7h-176.6c-9.8 0-17.7-7.9-17.7-17.7 0-9.7 7.9-17.7 17.7-17.7h176.6c9.7 0 17.7 7.9 17.7 17.7-0.1 9.9-8 17.7-17.7 17.7zM720.3 222.8c-6.9 6.9-18.1 6.9-25 0l-49.9-49.9-49.9 49.9c-6.9 6.9-18.1 6.9-25 0s-6.9-18.1 0-25l49.9-49.9-49.9-49.9c-6.9-6.9-6.9-18.1 0-25 3.4-3.4 7.9-5.2 12.5-5.2 4.5 0 9 1.7 12.5 5.2l49.9 49.9 49.9-49.9c3.4-3.4 7.9-5.2 12.5-5.2 4.5 0 9 1.7 12.5 5.2 6.9 6.9 6.9 18.1 0 25l-49.9 49.9 49.9 49.9c6.9 6.9 6.9 18.1 0 25zM1006.3-28.7h-176.5c-9.8 0-17.7-7.9-17.7-17.7 0-9.7 7.9-17.7 17.7-17.7h176.6c9.7 0 17.7 7.9 17.7 17.7-0.1 9.9-8 17.7-17.8 17.7zM380.9 289.1h211.9c69.9 0 131.1 57.8 131.1 123.6v211.9c0 9.8-7.9 17.7-17.7 17.7h-17.7c0 0 0 0 0 0v142.4c0.1 104.6-97.5 170.7-191.3 175.1-0.9 0.1-1.9 0.2-2.9 0.2h-7c-0.9 0-1.9-0.1-2.8-0.2-102.5-4.6-184.4-81.4-184.4-175.1v-142.5c0 0 0 0 0 0h-17.7c-9.8 0-17.7-7.9-17.7-17.7v-211.9c0.1-70.3 50-123.5 116.2-123.5zM335.4 642.2v142.5c0 76.1 69.4 138.3 155.4 140 79.1-1.6 162.4-57.4 162.4-140v-142.5c0 0 0 0 0 0h-317.8c0 0 0 0 0 0zM300.1 606.9h388.4v-194.2c0-46.2-45.7-88.3-95.8-88.3h-211.8c-46 0-80.8 38-80.8 88.3v194.2z" />
<glyph unicode="&#xe907;" glyph-name="uncheck" d="M512 954c-279.4 0-506-226.6-506-506s226.5-506 506-506 506 226.6 506 506-226.5 506-506 506zM673.5 340.3c14.9-14.8 14.9-38.9 0-53.8-14.8-14.9-38.9-14.9-53.8 0l-107.7 107.7-107.7-107.7c-14.8-14.9-38.9-14.8-53.8 0s-14.9 38.9 0 53.8l107.7 107.7-107.7 107.7c-14.9 14.8-14.9 38.9 0 53.8 14.8 14.9 38.9 14.9 53.8 0l107.7-107.7 107.7 107.7c14.8 14.9 38.9 14.8 53.8 0s14.9-38.9 0-53.8l-107.7-107.7 107.7-107.7z" />
<glyph unicode="&#xe908;" glyph-name="check-filled" d="M512 954c-279.4 0-506-226.6-506-506s226.5-506 506-506 506 226.6 506 506-226.5 506-506 506zM722.4 583.8l-248.2-310.3c-5.5-6.9-13.7-11.1-22.5-11.6-0.6 0-1.2 0-1.8 0-8.2 0-16.1 3.2-21.9 9.1l-124.1 124.1c-12.1 12.1-12.1 31.7 0 43.9 12.1 12.1 31.7 12.1 43.9 0l99.6-99.6 226.6 283.2c10.7 13.4 30.2 15.5 43.6 4.8s15.6-30.2 4.8-43.6z" />
<glyph unicode="&#xe909;" glyph-name="play-video" d="M512.3 952.8c-279.9 0-506.8-226.9-506.8-506.8s226.9-506.8 506.8-506.8 506.8 226.9 506.8 506.8-226.9 506.8-506.8 506.8zM755.2 427.7l-380.1-219.4c-3.2-1.9-6.9-2.8-10.6-2.8-3.6 0-7.4 1-10.7 2.8-6.5 3.8-10.7 10.7-10.7 18.3v438.9c0 7.5 4.2 14.5 10.7 18.3s14.7 3.8 21.2 0l380.2-219.4c6.6-3.8 10.6-10.8 10.6-18.3-0.1-7.6-4.1-14.6-10.6-18.4zM385.3 263.1l316.8 182.9-316.8 182.9z" />
<glyph unicode="&#xe90a;" glyph-name="atencao" d="M512-64c-282 0-511.7 229.2-512 511.4-0.2 136.7 52.9 265.4 149.5 362.2s225.1 150.2 361.8 150.4c0.2 0 0.5 0 0.7 0 136.5 0 264.8-53.1 361.5-149.5 96.8-96.6 150.3-225.1 150.5-361.9 0.4-282.3-229-512.3-511.3-512.7-0.2 0.1-0.5 0.1-0.7 0.1zM512.1 915.5c-0.2 0-0.4 0-0.7 0-124.9-0.2-242.2-49-330.4-137.4s-136.6-205.9-136.5-330.7c0.3-257.6 210-466.9 467.5-466.9 0.2 0 0.4 0 0.6 0 257.8 0.3 467.2 210.4 466.8 468.1-0.2 124.8-49 242.2-137.4 330.4-88.1 88-205.3 136.5-329.9 136.5zM482.7 361.5c-10.8 0-20.1 7.8-21.9 18.4l-58.9 337.4c-1.1 6.5 0.7 13.1 4.9 18.1s10.5 8 17 8l175.7 0.2c0 0 0 0 0 0 6.6 0 12.8-2.9 17-7.9s6-11.7 4.9-18.1l-58.2-337.6c-1.8-10.7-11.1-18.5-21.9-18.5h-58.6c0 0 0 0 0 0zM450.3 699l51.1-293h21.1l50.5 293.1-122.7-0.1zM512.3 152.4c-44.6 0-80.8 36.2-80.9 80.7 0 21.6 8.4 41.9 23.6 57.2 15.3 15.3 35.6 23.7 57.1 23.7 0 0 0.1 0 0.1 0 21.5 0 41.8-8.4 57.1-23.6s23.7-35.5 23.8-57.1c0.1-44.6-36.1-80.9-80.7-80.9 0 0-0.1 0-0.1 0zM512.3 269.5c0 0 0 0 0 0-9.8 0-18.9-3.8-25.7-10.7s-10.6-16-10.6-25.7c0-20 16.3-36.2 36.4-36.2 0 0 0 0 0 0 20 0 36.3 16.3 36.2 36.4 0 9.7-3.8 18.8-10.7 25.7-6.8 6.8-15.9 10.5-25.6 10.5z" />
<glyph unicode="&#xe90b;" glyph-name="atencao-2" d="M501.4 406h21.1l50.5 293.1-122.7-0.1zM873.5 810.5c-96.7 96.4-225 149.5-361.5 149.5-0.2 0-0.5 0-0.7 0-136.7-0.2-265.2-53.6-361.8-150.4s-149.7-225.5-149.5-362.2c0.3-282.2 230-511.4 512-511.4 0.2 0 0.5 0 0.7-0.1 282.3 0.4 511.7 230.4 511.3 512.7-0.2 136.8-53.7 265.3-150.5 361.9zM512.4 152.4c0 0-0.1 0 0 0-44.7 0-80.9 36.2-81 80.7 0 21.6 8.4 41.9 23.6 57.2 15.3 15.3 35.6 23.7 57.1 23.7h0.1c21.5 0 41.8-8.4 57.1-23.6s23.7-35.5 23.8-57.1c0.1-44.6-36.1-80.9-80.7-80.9zM621.4 717.6l-58.2-337.6c-1.8-10.7-11.1-18.5-21.9-18.5h-58.6c-10.8 0-20.1 7.8-21.9 18.4l-58.9 337.4c-1.1 6.5 0.7 13.1 4.9 18.1s10.5 8 17 8l175.7 0.2c6.6 0 12.8-2.9 17-7.9s6-11.7 4.9-18.1zM512.3 269.5c-9.8 0-18.9-3.8-25.7-10.7s-10.6-16-10.6-25.7c0-20 16.3-36.2 36.4-36.2 20 0 36.3 16.3 36.2 36.4 0 9.7-3.8 18.8-10.7 25.7-6.8 6.8-15.9 10.5-25.6 10.5z" />
<glyph unicode="&#xe90c;" glyph-name="repeat" d="M588.1 597.6c8.6-21 29-34.7 51.6-34.7h256.2c30.9 0 55.9 25.2 55.9 56.3v258c0 22.8-13.6 43.3-34.5 52s-44.9 3.9-60.9-12.2l-94.5-95.2c-69.4 40.9-148.7 64-231.3 64-252.8 0-458.4-207.1-458.4-461.6s205.6-461.7 458.4-461.7c165.6 0 318.8 90.4 400 235.9 15.1 27.1 5.5 61.4-21.4 76.7-27 15.2-61 5.6-76.1-21.5-61.4-110.1-177.3-178.5-302.5-178.5-191.1 0-346.6 156.6-346.6 349.1s155.5 349.1 346.6 349.1c52.3 0 102.9-12.4 148.9-34.5l-79.3-79.8c-16-16.1-20.7-40.4-12.1-61.4z" />
<glyph unicode="&#xe90d;" glyph-name="help" d="M512 911.8c255.8 0 463.8-208.1 463.8-463.8 0-255.8-208.1-463.8-463.8-463.8-255.8 0-463.8 208-463.8 463.8s208 463.8 463.8 463.8zM512 954c-279.4 0-506-226.6-506-506s226.5-506 506-506 506 226.6 506 506-226.5 506-506 506v0zM496.9 323.1c-11.7 0-21.1 9.4-21.1 21.1v80.4c0 11.7 9.4 21.1 21.1 21.1 72.7 0 123.5 44.6 123.5 108.4 0 64.9-39.2 108.4-97.6 108.4-62.4 0-119.2-54.8-119.2-114.9 0-11.7-9.4-21.1-21.1-21.1s-21.1 9.4-21.1 21.1c0 83.7 75.4 157.1 161.4 157.1 81 0 139.8-63.3 139.8-150.6 0-80.7-59.6-140.9-144.6-149.5v-60.3c0-11.8-9.4-21.2-21.1-21.2zM496.9 191.4c-11.7 0-21.1 9.4-21.1 21.1v43.9c0 11.7 9.4 21.1 21.1 21.1s21.1-9.4 21.1-21.1v-43.9c0-11.6-9.4-21.1-21.1-21.1z" />
<glyph unicode="&#xe90e;" glyph-name="calendar-3" d="M929.5 857.2h-150.3v66.8c0 9.2-7.5 16.7-16.7 16.7s-16.7-7.5-16.7-16.7v-66.8h-434.2v66.8c0 9.2-7.5 16.7-16.7 16.7s-16.7-7.5-16.7-16.7v-66.8h-183.7c-46 0-83.5-37.4-83.5-83.5v-734.8c0-46.1 37.5-83.5 83.5-83.5h835c46 0 83.5 37.4 83.5 83.5v734.8c0 46-37.5 83.5-83.5 83.5zM929.5-11.3h-835c-27.6 0-50.1 22.5-50.1 50.1v618h935.2v-617.9c0-27.7-22.5-50.2-50.1-50.2zM311.6 536.6h-133.6c-9.2 0-16.7-7.5-16.7-16.7s7.5-16.7 16.7-16.7h133.6c9.2 0 16.7 7.5 16.7 16.7s-7.5 16.7-16.7 16.7zM578.8 536.6h-133.6c-9.2 0-16.7-7.5-16.7-16.7s7.5-16.7 16.7-16.7h133.6c9.2 0 16.7 7.5 16.7 16.7s-7.5 16.7-16.7 16.7zM846 536.6h-133.6c-9.2 0-16.7-7.5-16.7-16.7s7.5-16.7 16.7-16.7h133.6c9.2 0 16.7 7.5 16.7 16.7s-7.5 16.7-16.7 16.7zM311.6 356.2h-133.6c-9.2 0-16.7-7.5-16.7-16.7s7.5-16.7 16.7-16.7h133.6c9.2 0 16.7 7.5 16.7 16.7 0 9.3-7.5 16.7-16.7 16.7zM578.8 356.2h-133.6c-9.2 0-16.7-7.5-16.7-16.7s7.5-16.7 16.7-16.7h133.6c9.2 0 16.7 7.5 16.7 16.7 0 9.3-7.5 16.7-16.7 16.7zM846 356.2h-133.6c-9.2 0-16.7-7.5-16.7-16.7s7.5-16.7 16.7-16.7h133.6c9.2 0 16.7 7.5 16.7 16.7 0 9.3-7.5 16.7-16.7 16.7zM311.6 175.7h-133.6c-9.2 0-16.7-7.5-16.7-16.7s7.5-16.7 16.7-16.7h133.6c9.2 0 16.7 7.5 16.7 16.7 0 9.3-7.5 16.7-16.7 16.7zM578.8 175.7h-133.6c-9.2 0-16.7-7.5-16.7-16.7s7.5-16.7 16.7-16.7h133.6c9.2 0 16.7 7.5 16.7 16.7 0 9.3-7.5 16.7-16.7 16.7zM846 175.7h-133.6c-9.2 0-16.7-7.5-16.7-16.7s7.5-16.7 16.7-16.7h133.6c9.2 0 16.7 7.5 16.7 16.7 0 9.3-7.5 16.7-16.7 16.7z" />
<glyph unicode="&#xe90f;" glyph-name="total" d="M623.3 358.5c0 57.9-36.1 75.8-86.1 100.5l-28.7 14.2c-51.1 25.2-63.2 32.3-63.2 63.2 0 39.8 35.2 54 68.2 54 15.7 0 67-3.9 67-54 0-11.5 9.3-20.8 20.8-20.8s20.8 9.3 20.8 20.8c0 50.8-34.5 86.8-87.8 94.1v24.6c0 11.5-9.3 20.8-20.8 20.8s-20.8-9.3-20.8-20.8v-24.5c-54-7.3-89-43.3-89-94.2 0-57.9 36.2-75.7 86.3-100.5l28.7-14.2c51-25.2 63-32.3 63-63.2 0-49.6-52.2-53.4-68.2-53.4s-68.2 3.9-68.2 53.4c0 11.5-9.3 20.8-20.8 20.8s-20.8-9.3-20.8-20.8c0-50.6 35-86.3 89-93.6v-25.1c0-11.5 9.3-20.8 20.8-20.8s20.8 9.3 20.8 20.8v25.2c54 7.2 89 43 89 93.5zM513.6 904.3c251.9 0 456.8-204.9 456.8-456.8s-204.9-456.8-456.8-456.8c-251.9 0-456.8 204.9-456.8 456.8s204.9 456.8 456.8 456.8zM513.6 945.8c-275.2 0-498.3-223.1-498.3-498.3s223.1-498.3 498.3-498.3c275.2 0 498.3 223.1 498.3 498.3s-223.1 498.3-498.3 498.3v0zM513.6 779.7c183.2 0 332.2-149 332.2-332.2s-149-332.2-332.2-332.2c-183.2 0-332.2 149-332.2 332.2-0.1 183.2 149 332.2 332.2 332.2zM513.6 821.3c-206.4 0-373.7-167.3-373.7-373.7s167.3-373.7 373.7-373.7c206.4 0 373.7 167.3 373.7 373.7 0 206.3-167.3 373.7-373.7 373.7v0z" />
<glyph unicode="&#xe910;" glyph-name="transport" d="M807.5 715.6h-184.8v138.1h-552.4c-31.8 0-57.3-25.5-57.3-57.3v-533.3c0-31.8 25.5-57.3 57.3-57.3h66.1c-1.6-8.4-2.4-16.7-2.4-25.5 0-76.5 61.6-138.1 138.1-138.1s140.2 61.7 137.9 138.2c0 8.8-0.8 17.1-2.4 25.5h253.5c-1.6-8.4-2.4-16.7-2.4-25.5 0-76.5 61.6-138.1 138.1-138.1s138.1 61.6 138.1 138.1c0 8.8-0.8 17.1-2.4 25.5h21.4c31.8 0 57.3 25.5 57.3 59.5v197.6l-203.7 252.6zM272.2 82.5c-53 0-97.7 44.7-97.7 97.7s44.7 97.7 97.7 97.7c55.3 0 97.7-44.7 97.7-97.7 0-53.1-44.7-97.7-97.7-97.7v0zM392.5 248.3c-23.6 41.8-68.5 70.1-120.3 70.1s-96.7-28.1-120.3-70.1h-81.6c-8.6 0-14.9 6.3-14.9 14.9v533c0 8.6 6.3 14.9 14.9 14.9h512v-563h-189.8v0.2zM796.9 82.7c-53 0-97.7 44.7-97.7 97.7s44.7 97.7 97.7 97.7c53 0 97.7-44.7 97.7-97.7 0-53.1-44.7-97.7-97.7-97.7v0zM971 265.4c0-8.6-8.6-16.9-16.9-16.9h-36.9c-23.6 41.8-68.5 70.1-120.3 70.1s-96.7-28.1-120.3-70.1h-51.8v427h163.5l182.7-227.4v-182.7z" />
<glyph unicode="&#xe911;" glyph-name="commerce" d="M972.6 699.2h-397.8v230.3c0 11.6-9.4 20.9-20.9 20.9h-502.5c-11.6 0-20.9-9.4-20.9-20.9v-963.1c0-11.6 9.4-20.9 20.9-20.9h921.2c11.6 0 20.9 9.4 20.9 20.9v711.9c0 11.6-9.3 20.9-20.9 20.9zM198-12.6v167.5h209.4v-167.5h-209.4zM428.3 196.8h-251.3c-11.6 0-20.9-9.4-20.9-20.9v-188.4h-83.8v921.1h460.6v-921.2h-83.7v188.4c0 11.6-9.4 21-20.9 21zM951.7-12.6h-376.9v670h376.9v-670zM260.8 531.7h-125.7c-11.6 0-20.9-9.4-20.9-20.9v-209.4c0-11.6 9.4-20.9 20.9-20.9h125.6c11.6 0 20.9 9.4 20.9 20.9v209.4c0.1 11.6-9.3 20.9-20.8 20.9zM239.8 322.4h-83.7v167.5h83.7v-167.5zM491.1 301.4v209.4c0 11.6-9.4 20.9-20.9 20.9h-125.7c-11.6 0-20.9-9.4-20.9-20.9v-209.4c0-11.6 9.4-20.9 20.9-20.9h125.6c11.6 0 21 9.4 21 20.9zM449.2 322.4h-83.7v167.5h83.7v-167.5zM260.8 843.2h-125.7c-11.6 0-20.9-9.4-20.9-20.9v-209.4c0-11.6 9.4-20.9 20.9-20.9h125.6c11.6 0 20.9 9.4 20.9 20.9v209.3c0.1 11.6-9.3 21-20.8 21zM239.8 633.8h-83.7v167.5h83.7v-167.5zM344.5 591.9h125.6c11.6 0 20.9 9.4 20.9 20.9v209.4c0 11.6-9.4 20.9-20.9 20.9h-125.6c-11.6 0-20.9-9.4-20.9-20.9v-209.4c0-11.5 9.3-20.9 20.9-20.9zM365.4 801.3h83.7v-167.5h-83.7v167.5zM637.6 364.3h251.2c11.6 0 20.9 9.4 20.9 20.9v167.5c0 11.6-9.4 20.9-20.9 20.9h-251.2c-11.6 0-20.9-9.4-20.9-20.9v-167.5c0-11.6 9.4-20.9 20.9-20.9zM658.6 531.7h209.4v-125.6h-209.4v125.6zM637.6 71.1h251.2c11.6 0 20.9 9.4 20.9 20.9v167.6c0 11.6-9.4 20.9-20.9 20.9h-251.2c-11.6 0-20.9-9.4-20.9-20.9v-167.5c0-11.6 9.4-21 20.9-21zM658.6 238.6h209.4v-125.6h-209.4v125.6z" />
<glyph unicode="&#xe912;" glyph-name="uncheck-line" d="M512 911.8c255.8 0 463.8-208.1 463.8-463.8 0-255.8-208.1-463.8-463.8-463.8-255.8 0-463.8 208-463.8 463.8s208 463.8 463.8 463.8zM512 954c-279.4 0-506-226.6-506-506s226.5-506 506-506 506 226.6 506 506-226.5 506-506 506v0zM565.8 448l107.7 107.7c14.9 14.9 14.9 39 0 53.8s-39 14.9-53.8 0l-107.7-107.7-107.7 107.7c-14.9 14.9-39 14.9-53.8 0-14.9-14.9-14.9-39 0-53.8l107.7-107.7-107.7-107.7c-14.9-14.9-14.9-39 0-53.8s39-14.9 53.8 0l107.7 107.7 107.7-107.7c14.9-14.9 39-14.9 53.8 0 14.9 14.9 14.9 39 0 53.8l-107.7 107.7z" />
<glyph unicode="&#xe913;" glyph-name="voltar" d="M976.2 485.4l-854.1 1.1 259.1 354.1c12.3 16.8 8.7 40.4-8.1 52.7-16.9 12.3-40.4 8.7-52.7-8.1l-302.6-413.6c-0.1-0.1-0.1-0.2-0.2-0.3l-0.1-0.1c0 0 0 0 0-0.1-1.2-1.6-2.2-3.3-3.1-5 0-0.1-0.1-0.1-0.1-0.2-0.4-0.8-0.8-1.7-1.2-2.6 0 0 0-0.1 0-0.1-0.4-0.9-0.7-1.7-1-2.6 0-0.1 0-0.1-0.1-0.2-0.3-0.8-0.5-1.7-0.7-2.6 0-0.2-0.1-0.3-0.1-0.5-0.2-0.8-0.3-1.6-0.5-2.4 0-0.1 0-0.1 0-0.2-0.1-0.8-0.2-1.6-0.3-2.5 0-0.3 0-0.5-0.1-0.8 0-0.7-0.1-1.4-0.1-2.1 0-0.2 0-0.5 0-0.7 0-0.7 0-1.5 0.1-2.2 0-0.2 0-0.5 0.1-0.7 0.1-1.8 0.4-3.6 0.8-5.3 0-0.1 0-0.1 0-0.2 1.2-4.9 3.3-9.4 6.1-13.4 0 0 0 0 0 0v-0.1c0.1-0.1 0.2-0.3 0.3-0.4l300.1-415.2c7.4-10.2 18.9-15.6 30.6-15.6 7.7 0 15.4 2.3 22.1 7.1 16.9 12.2 20.7 35.8 8.5 52.7l-257.2 355.8 854.3-1.1c0 0 0.1 0 0.1 0 20.8 0 37.6 16.8 37.7 37.6s-16.7 37.7-37.6 37.8z" />
<glyph unicode="&#xe914;" glyph-name="chain-qipu" d="M500 887.2c4 0.3 8 0.6 12 0.6 78.9 0 143.1-68.7 144.4-140.1-1.1-71.5-87.5-179-144.7-244.8-57.3 65.9-143.3 173-144.1 244.2 0.8 67.9 58.9 133.5 132.4 140.1zM528.6 9.2c-5.5-0.6-11-1-16.6-1-79.1 0-143.5 68.6-144.4 140.2 0.8 71.5 87.5 179.3 144.8 245.2 57.4-66.1 143.6-173.5 144.2-244.7-0.7-66.7-56.5-130.9-128-139.7zM728.5 745.4h0.2c0 0.5-0.1 1-0.1 1.5 0 0.4 0.1 0.7 0.1 1.1 0 14.1-1.5 27.8-4.2 41.1-19.5 102.5-107.3 170.9-212.5 170.9-8.1 0-16.1-0.5-23.9-1.3-86.9-8.8-158.5-65-183.3-147.8-6.1-19.5-9.5-40.3-9.5-61.8 0-0.5 0.1-1 0.1-1.5 0-0.7-0.1-1.4-0.1-2.1h0.3c2.3-99.6 100.7-220 168.3-296.9-67.9-77.3-167.3-198.6-168.4-298.6h-0.1c0-0.3 0.1-0.7 0.1-1 0-0.2-0.1-0.5-0.1-0.7 0-8.8 0.7-17.4 1.8-25.9 12.9-111.3 104.2-186.4 214.8-186.4 109.2 0 199.5 73.3 214.4 182.2 1.4 9.7 2.4 19.6 2.4 29.7 0 0.3-0.1 0.5-0.1 0.8 0 0.4 0.1 0.7 0.1 1.1h-0.1c-1.3 99.9-100.5 220.7-168.4 297.9 67.6 77.2 166.6 197.9 168.2 297.7z" />
<glyph unicode="&#xe915;" glyph-name="arrow-down" d="M512 228.9c-4.9 0-9.8 1.6-13.9 4.9l-482.1 394.5c-7.2 5.9-9.9 15.6-6.8 24.3s11.4 14.6 20.6 14.6h964.2c9.3 0 17.5-5.8 20.6-14.6 3.1-8.7 0.4-18.4-6.8-24.3l-481.9-394.5c-4.1-3.3-9-4.9-13.9-4.9z" />
<glyph unicode="&#xe916;" glyph-name="add" d="M512 954c-279.4 0-506-226.6-506-506s226.5-506 506-506 506 226.6 506 506-226.5 506-506 506zM702.3 410h-152.3v-152.4c0.1-21-17-38-38-38-21-0.1-38 17-38 38v152.4h-152.4c-21-0.1-38 17-38 38s17 38 38 38h152.4v152.4c-0.1 21 17 38 38 38 21 0.1 38-17 38-38v-152.4h152.3c21 0.1 38-17 38-38 0.1-21-17-38-38-38z" />
<glyph unicode="&#xe917;" glyph-name="banco-sicoob" d="M626.6 497.2l-225.7 0.4-100.1-166.4 159.9-281.8c27.8-54 72.3-53.5 104.7 2.8l256.9 444.2-195.7 0.8zM287.6 354.3l98.1 163 112 193.7-102.8 173.9h-331.8c-55.2-1.7-63-47.2-32.4-92.2l256.9-438.4zM960.9 886.6l-539-1.7 89.7-151.8 127.4-212.8 196.4-0.8 157.8 274.9c30.8 45 23 90.5-32.3 92.2z" />
</font>
</defs>
</svg>
